<svg width="82" height="99" viewBox="0 0 82 99" fill="none" xmlns="http://www.w3.org/2000/svg">
<path d="M57.9609 78.5059H23.2422C22.5185 78.5059 21.8019 78.6485 21.1333 78.9256C20.4647 79.2026 19.8573 79.6086 19.3456 80.1204C18.834 80.6323 18.4282 81.2399 18.1514 81.9085C17.8746 82.5772 17.7322 83.2939 17.7324 84.0176V97.2656H63.4707V84.0176C63.4709 83.2939 63.3285 82.5772 63.0518 81.9085C62.775 81.2399 62.3692 80.6323 61.8575 80.1204C61.3459 79.6086 60.7384 79.2026 60.0698 78.9256C59.4012 78.6485 58.6846 78.5059 57.9609 78.5059Z" fill="#73D88A"/>
<path d="M29.1016 78.5059H23.2422C22.5185 78.5059 21.8019 78.6485 21.1333 78.9256C20.4647 79.2026 19.8573 79.6086 19.3456 80.1204C18.834 80.6323 18.4282 81.2399 18.1514 81.9085C17.8746 82.5772 17.7322 83.2939 17.7324 84.0176V97.2656H23.5918V84.0176C23.5916 83.2939 23.734 82.5772 24.0108 81.9085C24.2875 81.2399 24.6934 80.6323 25.205 80.1204C25.7166 79.6086 26.3241 79.2026 26.9927 78.9256C27.6613 78.6485 28.3779 78.5059 29.1016 78.5059Z" fill="#67A96A"/>
<path d="M41 1.17188C19.3906 1.17188 1.87306 18.7402 1.87306 40.4141C1.86666 47.6676 3.87039 54.7811 7.66183 60.965C11.4533 67.1488 16.8841 72.161 23.3516 75.4453L57.8691 75.832C64.5408 72.6272 70.1705 67.6015 74.1087 61.3348C78.047 55.068 80.1333 47.8155 80.127 40.4141C80.127 18.7402 62.6094 1.17188 41 1.17188Z" fill="#E5F5FD"/>
<path d="M9.68556 40.4141C9.68556 20.0625 25.1311 3.33203 44.9063 1.36602C43.6212 1.23828 42.3192 1.17357 41 1.17188C19.3906 1.17188 1.87306 18.7402 1.87306 40.4141C1.86666 47.6676 3.87039 54.7811 7.66183 60.965C11.4533 67.1488 16.8841 72.161 23.3516 75.4453H31.1641C24.6966 72.161 19.2658 67.1488 15.4743 60.965C11.6829 54.7811 9.67916 47.6676 9.68556 40.4141Z" fill="#A6B7D0"/>
<path d="M48.6934 63.4141H33.3066L33.2598 63.459V79.3868L48.7402 79.3399V63.459L48.6934 63.4141Z" fill="#EFC597"/>
<path d="M50.7072 12.5937C66.67 18.5254 71.1095 39.9766 59.129 52.5039L48.6935 63.4141L43.6857 68.6523C43.3389 69.0153 42.9221 69.3042 42.4605 69.5016C41.9989 69.699 41.5021 69.8008 41.0001 69.8008C40.4981 69.8008 40.0013 69.699 39.5397 69.5016C39.0781 69.3042 38.6614 69.0153 38.3146 68.6523L33.3068 63.4141L22.8712 52.5039C10.8907 39.9766 15.3302 18.5254 31.2931 12.5937C37.556 10.2708 44.4443 10.2708 50.7072 12.5937Z" fill="#FFD8B7"/>
<path d="M59.2694 30.5059C59.2694 30.5059 60.3417 39.2735 56.1581 43.9571C51.9745 48.6406 44.1424 47.4414 44.1424 47.4414C44.1424 47.4414 43.0702 38.6739 47.2538 33.9903C51.4374 29.3067 59.2694 30.5059 59.2694 30.5059Z" fill="#5F6A78"/>
<path d="M34.7459 33.9903C38.9295 38.6739 37.8573 47.4414 37.8573 47.4414C37.8573 47.4414 30.0252 48.6387 25.8416 43.9571C21.6581 39.2754 22.7303 30.5059 22.7303 30.5059C22.7303 30.5059 30.5624 29.3067 34.7459 33.9903Z" fill="#5F6A78"/>
<path d="M69.2931 19.2559C71.6546 22.0882 73.0909 25.5764 73.4084 29.2504C73.7258 32.9244 72.9092 36.6073 71.0685 39.8027C71.958 36.6823 71.9896 33.3797 71.1599 30.2429C70.3301 27.106 68.6697 24.251 66.3536 21.9785C66.1235 21.7571 65.9494 21.4841 65.8458 21.1821C65.7421 20.88 65.7118 20.5577 65.7574 20.2416C65.8031 19.9256 65.9233 19.6249 66.1081 19.3645C66.2929 19.1041 66.5371 18.8915 66.8204 18.7441C67.1029 18.5978 67.4163 18.5214 67.7345 18.5215C68.0322 18.522 68.3262 18.5881 68.5956 18.715C68.865 18.8419 69.1031 19.0266 69.2931 19.2559Z" fill="#E5E5E5"/>
<path d="M57.8691 79.293V71.3984L57.8418 71.2734C56.5696 72.1358 55.233 72.8991 53.8438 73.5566V81.6445L53.8477 81.6543C55.255 80.9863 56.6086 80.2105 57.8965 79.334L57.8691 79.293Z" fill="#AFBAC8"/>
<path d="M53.8437 81.6445L53.8476 81.6543C52.6023 82.246 51.3173 82.7505 50.002 83.1641L49.9863 83.1133V75.0703C51.3062 74.6572 52.5952 74.1513 53.8437 73.5566V81.6445Z" fill="#818EAC"/>
<path d="M48.7402 75.4336C49.1602 75.3223 49.5755 75.2012 49.9863 75.0703V83.1133L50.0019 83.1641C48.7928 83.546 47.5605 83.85 46.3125 84.0742V75.9766C47.1328 75.8281 47.9421 75.6471 48.7402 75.4336Z" fill="#AFBAC8"/>
<path d="M46.3125 75.9766V84.0742C45.0998 84.2935 43.8749 84.4383 42.6445 84.5078L42.6387 84.4004V76.4102C43.871 76.3406 45.0979 76.1958 46.3125 75.9766Z" fill="#818EAC"/>
<path d="M42.6387 84.4004L42.6445 84.5078C42.0703 84.541 41.4941 84.5566 40.9121 84.5566C40.2559 84.5566 39.6035 84.5352 38.959 84.4941L38.9648 84.4004V76.3965C39.6074 76.4375 40.2578 76.459 40.9121 76.459C41.4922 76.459 42.0664 76.4434 42.6387 76.4102V84.4004Z" fill="#AFBAC8"/>
<path d="M38.9649 76.3965V84.4004L38.959 84.4941C37.6566 84.4117 36.3609 84.2447 35.0801 83.9941L35.1074 83.8477V75.9004C36.3811 76.1495 37.6696 76.3152 38.9649 76.3965Z" fill="#818EAC"/>
<path d="M35.1074 75.9004V83.8476L35.0801 83.9941C33.7822 83.7402 32.5027 83.4002 31.25 82.9766V75.0156L31.291 74.8926C31.9375 75.1113 32.5937 75.3073 33.2598 75.4805C33.8672 75.6406 34.4844 75.7812 35.1074 75.9004Z" fill="#AFBAC8"/>
<path d="M31.291 74.8926L31.25 75.0156V82.9766C29.9279 82.5316 28.6389 81.9938 27.3926 81.3672V73.2695C28.6521 73.9019 29.9548 74.4443 31.291 74.8926Z" fill="#818EAC"/>
<path d="M23.3516 70.832V78.8887L23.332 78.916C24.6191 79.8383 25.9768 80.6579 27.3926 81.3672V73.2695C25.9836 72.5644 24.6325 71.7494 23.3516 70.832Z" fill="#AFBAC8"/>
<path d="M69.6471 44.9075C69.287 44.9075 68.9413 44.7654 68.6853 44.5121C68.4293 44.2588 68.2836 43.9147 68.2799 43.5545C68.2761 43.1944 68.4146 42.8473 68.6653 42.5887C68.9159 42.3301 69.2585 42.1809 69.6186 42.1734C69.9787 42.1659 70.3272 42.3008 70.5884 42.5488C70.8495 42.7968 71.0023 43.1378 71.0135 43.4978C71.0247 43.8578 70.8934 44.2076 70.6481 44.4714C70.4029 44.7351 70.0634 44.8914 69.7036 44.9063C69.6846 44.9071 69.6659 44.9075 69.6471 44.9075Z" fill="#E5E5E5"/>
<path d="M41 92.1875C40.5751 92.1875 40.1597 92.0615 39.8064 91.8254C39.4531 91.5894 39.1777 91.2538 39.0151 90.8612C38.8525 90.4687 38.8099 90.0367 38.8928 89.6199C38.9757 89.2032 39.1804 88.8204 39.4808 88.5199C39.7813 88.2194 40.1641 88.0148 40.5809 87.9319C40.9976 87.849 41.4296 87.8916 41.8222 88.0542C42.2147 88.2168 42.5503 88.4921 42.7864 88.8455C43.0224 89.1988 43.1484 89.6141 43.1484 90.0391C43.1478 90.6087 42.9212 91.1547 42.5184 91.5575C42.1157 91.9603 41.5696 92.1868 41 92.1875Z" fill="#4A5160"/>
<path d="M41 98.4375C40.5751 98.4375 40.1597 98.3115 39.8064 98.0754C39.4531 97.8394 39.1777 97.5038 39.0151 97.1112C38.8525 96.7187 38.8099 96.2867 38.8928 95.8699C38.9757 95.4532 39.1804 95.0704 39.4808 94.7699C39.7813 94.4694 40.1641 94.2648 40.5809 94.1819C40.9976 94.099 41.4296 94.1416 41.8222 94.3042C42.2147 94.4668 42.5503 94.7421 42.7864 95.0955C43.0224 95.4488 43.1484 95.8641 43.1484 96.2891C43.1478 96.8587 42.9212 97.4047 42.5184 97.8075C42.1157 98.2103 41.5696 98.4368 41 98.4375Z" fill="#4A5160"/>
<path d="M41 94.1406C40.5751 94.1406 40.1597 94.2666 39.8064 94.5027C39.4531 94.7388 39.1777 95.0743 39.0151 95.4669C38.8525 95.8595 38.8099 96.2914 38.8928 96.7082C38.9757 97.125 39.1804 97.5078 39.4808 97.8082C39.7813 98.1087 40.1641 98.3133 40.5809 98.3962C40.9976 98.4791 41.4296 98.4366 41.8222 98.274C42.2148 98.1114 42.5503 97.836 42.7864 97.4827C43.0224 97.1294 43.1484 96.714 43.1484 96.2891C43.1478 95.7195 42.9212 95.1734 42.5184 94.7706C42.1157 94.3679 41.5696 94.1413 41 94.1406ZM41 96.4844C40.9614 96.4844 40.9236 96.4729 40.8915 96.4515C40.8594 96.43 40.8343 96.3995 40.8196 96.3638C40.8048 96.3281 40.8009 96.2888 40.8084 96.251C40.816 96.2131 40.8346 96.1783 40.8619 96.151C40.8892 96.1236 40.924 96.105 40.9619 96.0975C40.9998 96.09 41.0391 96.0938 41.0747 96.1086C41.1104 96.1234 41.1409 96.1484 41.1624 96.1806C41.1839 96.2127 41.1953 96.2504 41.1953 96.2891C41.1953 96.3409 41.1747 96.3905 41.1381 96.4272C41.1015 96.4638 41.0518 96.4844 41 96.4844Z" fill="#284268"/>
<path d="M26.5469 91.829V97.2656C26.5469 97.5764 26.6703 97.8744 26.8901 98.0942C27.1099 98.314 27.4079 98.4374 27.7188 98.4374C28.0296 98.4374 28.3276 98.314 28.5474 98.0942C28.7672 97.8744 28.8906 97.5764 28.8906 97.2656V91.829C28.8906 91.6751 28.8603 91.5228 28.8014 91.3806C28.7425 91.2384 28.6562 91.1092 28.5474 91.0004C28.4386 90.8916 28.3094 90.8053 28.1672 90.7464C28.025 90.6875 27.8726 90.6572 27.7188 90.6572C27.5649 90.6572 27.4125 90.6875 27.2703 90.7464C27.1281 90.8053 26.9989 90.8916 26.8901 91.0004C26.7813 91.1092 26.695 91.2384 26.6361 91.3806C26.5772 91.5228 26.5469 91.6751 26.5469 91.829Z" fill="#284268"/>
<path d="M54.6719 97.2656V92.2197C54.6719 91.9089 54.5484 91.6108 54.3286 91.391C54.1089 91.1713 53.8108 91.0478 53.5 91.0478C53.1892 91.0478 52.8911 91.1713 52.6714 91.391C52.4516 91.6108 52.3281 91.9089 52.3281 92.2197V97.2656C52.3281 97.5764 52.4516 97.8744 52.6714 98.0942C52.8911 98.314 53.1892 98.4374 53.5 98.4374C53.8108 98.4374 54.1089 98.314 54.3286 98.0942C54.5484 97.8744 54.6719 97.5764 54.6719 97.2656Z" fill="#284268"/>
<path d="M41 87.8906C40.5751 87.8906 40.1597 88.0166 39.8064 88.2527C39.4531 88.4888 39.1777 88.8243 39.0151 89.2169C38.8525 89.6095 38.8099 90.0414 38.8928 90.4582C38.9757 90.875 39.1804 91.2578 39.4808 91.5582C39.7813 91.8587 40.1641 92.0633 40.5809 92.1462C40.9976 92.2291 41.4296 92.1866 41.8222 92.024C42.2148 91.8614 42.5503 91.586 42.7864 91.2327C43.0224 90.8794 43.1484 90.464 43.1484 90.0391C43.1478 89.4695 42.9212 88.9234 42.5184 88.5206C42.1157 88.1179 41.5696 87.8913 41 87.8906ZM41 90.2344C40.9614 90.2344 40.9236 90.2229 40.8915 90.2015C40.8594 90.18 40.8343 90.1495 40.8196 90.1138C40.8048 90.0781 40.8009 90.0388 40.8084 90.001C40.816 89.9631 40.8346 89.9283 40.8619 89.901C40.8892 89.8736 40.924 89.855 40.9619 89.8475C40.9998 89.84 41.0391 89.8438 41.0747 89.8586C41.1104 89.8734 41.1409 89.8984 41.1624 89.9306C41.1839 89.9627 41.1953 90.0004 41.1953 90.0391C41.1953 90.0909 41.1747 90.1405 41.1381 90.1772C41.1015 90.2138 41.0518 90.2344 41 90.2344Z" fill="#284268"/>
<path d="M64.6018 20.0459C64.5277 20.5484 64.5736 21.0612 64.7357 21.5426C64.8977 22.0239 65.1713 22.4601 65.5342 22.8154C67.6876 24.9201 69.2362 27.5645 70.0182 30.4722C70.8003 33.38 70.787 36.4444 69.9799 39.3453C69.8375 39.6158 69.8065 39.9313 69.8935 40.2243C69.9804 40.5174 70.1784 40.7649 70.4453 40.914C70.7121 41.0631 71.0267 41.1021 71.3219 41.0226C71.617 40.943 71.8694 40.7513 72.0252 40.4883C74.0153 37.0795 74.9071 33.1404 74.5792 29.2069C74.2514 25.2733 72.7198 21.5362 70.1928 18.5039C69.7313 17.9426 69.091 17.5567 68.379 17.411C67.6671 17.2652 66.9267 17.3683 66.2817 17.7031C65.8346 17.9307 65.4487 18.2622 65.1564 18.6699C64.8641 19.0776 64.6739 19.5495 64.6018 20.0459ZM66.9196 20.3941C66.9378 20.2649 66.987 20.142 67.0632 20.036C67.1394 19.93 67.2402 19.844 67.3569 19.7856C67.4741 19.7247 67.6043 19.693 67.7363 19.693C67.8621 19.6936 67.9862 19.722 68.0998 19.776C68.2134 19.83 68.3137 19.9083 68.3936 20.0055C70.7092 22.7823 72.0703 26.2303 72.2758 29.84C71.3821 26.5367 69.6206 23.5328 67.174 21.14C67.0751 21.0451 67.0003 20.9279 66.956 20.7981C66.9117 20.6683 66.8992 20.5298 66.9196 20.3941Z" fill="#284268"/>
<path d="M69.5899 42.1744C69.2333 42.1903 68.897 42.3451 68.653 42.6057C68.409 42.8662 68.2765 43.2119 68.284 43.5688C68.2914 43.9257 68.4382 44.2655 68.6929 44.5156C68.9475 44.7658 69.2899 44.9064 69.6469 44.9074C69.6665 44.9074 69.6844 44.9074 69.7034 44.9062C69.8842 44.9008 70.0621 44.8596 70.2268 44.7849C70.3916 44.7103 70.5399 44.6037 70.6631 44.4713C70.7864 44.3389 70.8821 44.1834 70.9448 44.0137C71.0075 43.8441 71.036 43.6636 71.0285 43.4829C71.0209 43.3022 70.9777 43.1248 70.9011 42.9609C70.8245 42.797 70.7162 42.65 70.5824 42.5283C70.4486 42.4066 70.292 42.3126 70.1216 42.2519C69.9512 42.1911 69.7705 42.1648 69.5899 42.1744Z" fill="#284268"/>
<path d="M43.9647 48.5991C44.7756 48.7087 45.5933 48.7609 46.4116 48.7553C49.2631 48.7553 53.9661 48.1694 57.0317 44.7379C61.5172 39.7169 60.4797 30.744 60.4335 30.3645C60.4023 30.1109 60.2891 29.8744 60.1111 29.691C59.9332 29.5077 59.7001 29.3875 59.4475 29.3489C59.102 29.2958 50.9348 28.1124 46.3811 33.2108C41.8956 38.2319 42.9331 47.2045 42.9794 47.5842C43.0106 47.8376 43.1238 48.0739 43.3016 48.2571C43.4795 48.4403 43.7123 48.5604 43.9647 48.5991ZM48.1284 34.7709C51.0411 31.5106 56.1151 31.4506 58.1809 31.5794C58.3087 33.8606 58.3112 39.787 55.2837 43.176C52.3713 46.436 47.2979 46.4963 45.2327 46.3678C45.1075 44.0836 45.1102 38.1495 48.129 34.7708L48.1284 34.7709Z" fill="#284268"/>
<path d="M39.0213 47.5828C39.0676 47.2031 40.1051 38.2305 35.6196 33.2094C31.0651 28.1117 22.8981 29.2945 22.5532 29.3475C22.3006 29.3861 22.0675 29.5063 21.8896 29.6896C21.7116 29.873 21.5984 30.1095 21.5672 30.3631C21.521 30.7426 20.4835 39.7154 24.969 44.7365C28.0354 48.1684 32.7372 48.7539 35.5891 48.7539C36.4074 48.7593 37.2251 48.7071 38.036 48.5977C38.2884 48.5589 38.5212 48.4389 38.6991 48.2557C38.8769 48.0725 38.9901 47.8362 39.0213 47.5828ZM36.7674 46.3674C34.7008 46.4953 29.628 46.4352 26.7165 43.1758C23.6979 39.7969 23.6956 33.8623 23.8206 31.5791C25.8872 31.4512 30.96 31.5113 33.8717 34.7707C36.8901 38.1496 36.8926 44.0842 36.7674 46.3672V46.3674Z" fill="#284268"/>
<path d="M42.4696 61.9141C42.7804 61.9141 43.0784 61.7906 43.2982 61.5708C43.518 61.3511 43.6414 61.053 43.6414 60.7422C43.6414 60.4314 43.518 60.1333 43.2982 59.9135C43.0784 59.6938 42.7804 59.5703 42.4696 59.5703H39.5305C39.2197 59.5703 38.9216 59.6938 38.7019 59.9135C38.4821 60.1333 38.3586 60.4314 38.3586 60.7422C38.3586 61.053 38.4821 61.3511 38.7019 61.5708C38.9216 61.7906 39.2197 61.9141 39.5305 61.9141H42.4696Z" fill="#284268"/>
<path d="M28.1711 21.8998C28.4417 21.9001 28.7041 21.8063 28.9133 21.6346C30.2883 20.509 31.7981 19.5588 33.4078 18.8061C33.9236 18.5647 34.4582 18.3397 34.9963 18.1375C35.2846 18.0263 35.5173 17.8057 35.6437 17.5237C35.7702 17.2418 35.7801 16.9213 35.6715 16.6321C35.5628 16.3428 35.3443 16.1082 35.0635 15.9792C34.7826 15.8503 34.4623 15.8375 34.1721 15.9436C33.5767 16.167 32.9853 16.416 32.4142 16.6834C30.6285 17.5187 28.9536 18.5727 27.4279 19.8213C27.2409 19.9745 27.1058 20.1818 27.0412 20.4147C26.9766 20.6477 26.9856 20.8949 27.067 21.1226C27.1484 21.3502 27.2982 21.5471 27.4959 21.6863C27.6936 21.8254 27.9295 21.9 28.1713 21.8998H28.1711Z" fill="#284268"/>
<path d="M23.6824 25.6103C23.9306 25.7972 24.2428 25.8779 24.5505 25.8346C24.8581 25.7914 25.136 25.6277 25.323 25.3797C25.6586 24.9342 26.0144 24.4971 26.3807 24.0807C26.4839 23.9654 26.5634 23.8307 26.6143 23.6846C26.6653 23.5384 26.6868 23.3836 26.6776 23.2291C26.6684 23.0745 26.6286 22.9234 26.5607 22.7843C26.4927 22.6452 26.3979 22.521 26.2816 22.4187C26.1654 22.3165 26.03 22.2383 25.8834 22.1887C25.7368 22.1391 25.5818 22.119 25.4273 22.1297C25.2729 22.1403 25.1221 22.1814 24.9837 22.2506C24.8452 22.3199 24.7218 22.4158 24.6207 22.533C24.2156 22.9937 23.8221 23.4769 23.451 23.9693C23.264 24.2176 23.1834 24.53 23.2268 24.8378C23.2702 25.1455 23.4341 25.4234 23.6824 25.6103Z" fill="#284268"/>
<path d="M40.991 0C18.7707 0 0.697998 18.1295 0.697998 40.4137C0.704661 47.7666 2.71453 54.9788 6.51167 61.2755C10.3088 67.5721 15.7498 72.7153 22.25 76.1523V77.4203C20.6675 77.6486 19.2214 78.4429 18.1799 79.6559C17.1384 80.869 16.5721 82.4186 16.5859 84.0174V97.2656C16.5859 97.5764 16.7094 97.8745 16.9291 98.0943C17.1489 98.314 17.447 98.4375 17.7578 98.4375C18.0686 98.4375 18.3666 98.314 18.5864 98.0943C18.8062 97.8745 18.9296 97.5764 18.9296 97.2656V84.0166C18.9283 82.9961 19.2871 82.0078 19.943 81.2259C20.5988 80.444 21.5096 79.9186 22.5148 79.7424C22.558 79.7886 22.6051 79.831 22.6556 79.8691C27.8769 83.6049 34.1183 85.6495 40.5379 85.727C46.9576 85.8046 53.2466 83.9114 58.5566 80.3029C58.7387 80.1773 58.8805 80.0018 58.9652 79.7975C59.9123 80.0256 60.7552 80.5659 61.3581 81.3312C61.961 82.0965 62.2889 83.0423 62.289 84.0166V97.2656C62.289 97.5764 62.4125 97.8745 62.6323 98.0943C62.852 98.314 63.1501 98.4375 63.4609 98.4375C63.7717 98.4375 64.0698 98.314 64.2895 98.0943C64.5093 97.8745 64.6328 97.5764 64.6328 97.2656V84.0166C64.6446 82.4186 64.0775 80.8704 63.0363 79.6581C61.9951 78.4458 60.5502 77.6514 58.9687 77.4219V76.5539C65.6756 73.1944 71.315 68.0344 75.2555 61.6515C79.196 55.2687 81.282 47.9149 81.28 40.4137C81.28 18.1295 63.2115 0 40.991 0ZM26.1562 79.3969C25.5959 79.0992 25.0716 78.7381 24.5937 78.3207V73.0162C25.0775 73.3952 25.6015 73.7199 26.1562 73.9844V79.3969ZM30.0625 81.2961C29.4765 81.0906 29.0859 80.8695 28.5 80.6344V75.107C29.0859 75.3219 29.4765 75.5221 30.0625 75.7096V81.2961ZM33.9687 82.5393C33.3828 82.4141 32.9921 82.2781 32.4062 82.1256V76.4711C32.9921 76.6113 33.3828 76.7354 33.9687 76.8506V82.5393ZM23.7171 51.6937C18.2216 45.9473 16.0289 37.7826 17.8519 29.8531C18.6611 26.284 20.293 22.9533 22.6175 20.1266C25.0226 17.2152 28.1574 14.9946 31.7017 13.6914C37.7011 11.4675 44.2988 11.4675 50.2982 13.6914C53.8427 14.9947 56.9777 17.2156 59.3828 20.1271C61.7073 22.9539 63.3392 26.2846 64.1484 29.8537C65.9714 37.7834 63.7787 45.9475 58.2832 51.6943L42.8388 67.8434C42.6013 68.0917 42.316 68.2893 42 68.4243C41.684 68.5593 41.344 68.6289 41.0004 68.6289C40.6567 68.6289 40.3167 68.5593 40.0007 68.4243C39.6847 68.2893 39.3994 68.0917 39.1619 67.8434L23.7171 51.6937ZM34.3593 66.2891L37.4312 69.4629C37.8879 69.9469 38.438 70.3332 39.0483 70.5984C39.6586 70.8636 40.3164 71.0022 40.9818 71.0059C41.6416 71.0155 42.2963 70.8896 42.9055 70.636C43.5147 70.3823 44.0653 70.0063 44.5232 69.5312H44.5642L47.6406 66.2891V74.4996C43.2758 75.5345 38.7313 75.5506 34.3593 74.5467V66.2891ZM37.875 83.2182C37.289 83.1643 36.7031 83.0959 36.3125 83.0156V77.2891C36.7031 77.3633 37.289 77.427 37.875 77.4768V83.2182ZM41.3906 83.3758C41.1953 83.3793 41.1003 83.3857 40.9152 83.3857C40.656 83.3857 40.414 83.3781 40.2187 83.3713V77.6182C40.414 77.6244 40.656 77.6312 40.9152 77.6312C41.1003 77.6312 41.1953 77.6254 41.3906 77.6223V83.3758ZM45.1015 83.0793C44.7109 83.1436 44.3203 83.1953 43.7343 83.2395V77.4961C44.3203 77.4553 44.7109 77.4068 45.1015 77.3475V83.0793ZM48.8125 82.2934C48.4218 82.4176 47.8359 82.5314 47.4453 82.6346V76.9377C47.8359 76.8426 48.4218 76.7385 48.8125 76.624V82.2934ZM52.7187 80.901C52.1328 81.1227 51.7421 81.3334 51.1562 81.526V75.9189C51.7421 75.7432 52.1328 75.5514 52.7187 75.349V80.901ZM56.625 78.7244C56.1437 79.1185 55.6196 79.457 55.0625 79.7336V74.2879C55.6144 74.0413 56.1382 73.7362 56.625 73.3777V78.7244ZM72.9119 60.9764C69.436 66.4003 64.6379 70.8513 58.9687 73.9109V71.3982C58.9805 71.3164 58.9836 71.2335 58.9781 71.151L58.9689 71.026C58.9303 70.839 58.846 70.6644 58.7237 70.5178C58.6014 70.3712 58.4447 70.2571 58.2677 70.1856C58.0906 70.1141 57.8986 70.0874 57.7088 70.1079C57.5189 70.1285 57.3371 70.1956 57.1794 70.3033C54.9567 71.8092 52.5351 72.9982 49.9843 73.8359V63.8381L60.013 53.3137C66.0556 46.9953 68.4505 38.0287 66.4503 29.3279C64.5392 21.015 58.7941 14.3484 51.1146 11.4945C44.5885 9.075 37.4114 9.075 30.8853 11.4945C23.205 14.3484 17.4789 21.015 15.5677 29.3279C13.5675 38.0287 15.9443 46.9953 21.9869 53.3137L32.0156 63.8381V73.9C29.2425 73.0078 26.6202 71.7014 24.2376 70.0252C24.1216 69.8909 23.9766 69.7847 23.8135 69.7146C23.6504 69.6446 23.4736 69.6124 23.2963 69.6207C23.119 69.629 22.9458 69.6775 22.79 69.7624C22.6342 69.8474 22.4997 69.9666 22.3966 70.1111L22.4123 70.1389C22.2203 70.4084 22.0546 70.7314 22.25 71.0328V73.4742C16.4198 70.1458 11.574 65.3343 8.20426 59.5279C4.83456 53.7215 3.06094 47.127 3.06343 40.4137C3.06343 19.4219 20.072 2.34375 41 2.34375C61.9279 2.34375 78.9543 19.4219 78.9543 40.4137C78.9517 47.7053 76.8544 54.8427 72.9119 60.9766V60.9764Z" fill="#284268"/>
</svg>
