<svg width="100" height="85" viewBox="0 0 100 85" fill="none" xmlns="http://www.w3.org/2000/svg">
<path d="M95.4023 9.56561C96.0897 10.2541 96.9284 10.7724 97.8516 11.0793C96.9287 11.3869 96.0902 11.9051 95.4023 12.593C94.7145 13.2808 94.1963 14.1193 93.8887 15.0422C93.581 14.1194 93.0627 13.2809 92.3749 12.5931C91.687 11.9053 90.8486 11.387 89.9258 11.0793C90.8486 10.7717 91.6872 10.2535 92.375 9.56562C93.0628 8.87778 93.5811 8.03923 93.8887 7.11639C94.1956 8.03956 94.7139 8.87826 95.4023 9.56561Z" fill="#B0B5CA"/>
<path d="M94.2188 30.4055C95.6406 41.6672 91.2324 52.3312 83.3301 59.4113L59.4082 44.5598L59.4023 44.5422C61.6701 43.919 63.6368 42.4986 64.9415 40.5418C66.2462 38.5851 66.8011 36.2234 66.5045 33.8904C66.2079 31.5574 65.0796 29.4097 63.3268 27.8417C61.574 26.2737 59.3144 25.3906 56.9629 25.3547L78.8535 6.38202C83.0368 8.99529 86.5859 12.5069 89.2436 16.6621C91.9012 20.8173 93.6007 25.5119 94.2188 30.4055Z" fill="#7F8A98"/>
<path d="M87.2246 73.0441V79.6808C87.2247 80.1389 87.1345 80.5926 86.9592 81.0158C86.7839 81.4391 86.527 81.8236 86.203 82.1475C85.8791 82.4715 85.4945 82.7284 85.0713 82.9037C84.6481 83.079 84.1944 83.1692 83.7363 83.1691H77.7305V69.5558H83.7363C84.6614 69.5561 85.5485 69.9237 86.2026 70.5778C86.8568 71.232 87.2244 72.1191 87.2246 73.0441Z" fill="#ED6337"/>
<path d="M83.3301 63.6183V69.5558H77.7305H37.8516H32.0957V63.6183H83.3301Z" fill="#71C3D7"/>
<path d="M83.3301 59.4113V63.6184H32.0957V57.7023C32.1098 54.5439 31.4409 51.4199 30.1348 48.5441C28.7977 45.6313 27.8905 42.5398 27.4414 39.3664C27.4043 39.1203 27.3711 38.8723 27.3418 38.6223C27.1213 36.782 27.0619 34.926 27.1641 33.0754C28.0157 17.3078 40.4239 3.50311 56.6426 1.47382C63.7113 0.576377 70.8826 1.93968 77.1289 5.36835C77.7149 5.69061 78.2897 6.0285 78.8535 6.38202L56.9629 25.3547C56.4727 25.345 55.9825 25.3711 55.4961 25.4328C54.1616 25.6036 52.8766 26.0479 51.7216 26.738C50.5666 27.4281 49.5664 28.3491 48.7836 29.4434C48.0008 30.5377 47.4523 31.7817 47.1722 33.0977C46.8922 34.4137 46.8868 35.7733 47.1562 37.0915C47.4257 38.4097 47.9643 39.6581 48.7383 40.7587C49.5122 41.8592 50.505 42.7882 51.6544 43.4875C52.8039 44.1869 54.0853 44.6415 55.4184 44.8229C56.7516 45.0044 58.1078 44.9088 59.4024 44.5422L59.4082 44.5598L83.3301 59.4113Z" fill="#E5F5FD"/>
<path d="M77.7305 69.5558V83.1691H37.8516V69.5558H77.7305Z" fill="#E5F5FD"/>
<path d="M66.5058 33.8996C66.7671 35.8364 66.4472 37.8072 65.5865 39.5618C64.7259 41.3165 63.3634 42.776 61.6719 43.755C59.9804 44.734 58.0362 45.1884 56.086 45.0606C54.1358 44.9328 52.2676 44.2285 50.7183 43.0371C49.1691 41.8457 48.0087 40.2209 47.3845 38.3689C46.7602 36.5169 46.7002 34.5212 47.2121 32.635C47.724 30.7489 48.7847 29.0573 50.2596 27.775C51.7345 26.4927 53.557 25.6775 55.496 25.4328C55.9824 25.371 56.4726 25.3449 56.9628 25.3546C59.3136 25.3986 61.5703 26.2857 63.3219 27.8541C65.0735 29.4225 66.2034 31.5679 66.5058 33.8996Z" fill="#A6B7D0"/>
<path d="M37.8516 69.5558V83.1691H31.8457C31.3876 83.1693 30.9339 83.0792 30.5106 82.904C30.0872 82.7288 29.7026 82.4719 29.3787 82.1479C29.0547 81.8239 28.7978 81.4393 28.6225 81.016C28.4473 80.5927 28.3572 80.139 28.3574 79.6808V73.0441C28.3574 72.586 28.4476 72.1324 28.6228 71.7092C28.7981 71.2859 29.0551 70.9014 29.379 70.5774C29.7029 70.2535 30.0875 69.9966 30.5107 69.8213C30.934 69.646 31.3876 69.5558 31.8457 69.5558H37.8516Z" fill="#ED6337"/>
<path d="M30.4121 3.62225C31.0997 4.31045 31.9383 4.82874 32.8613 5.13592C31.9385 5.44352 31.0999 5.96175 30.4121 6.64959C29.7243 7.33743 29.206 8.17598 28.8984 9.09881C28.5907 8.17603 28.0725 7.33755 27.3846 6.64972C26.6968 5.9619 25.8583 5.44362 24.9355 5.13592C25.8584 4.82833 26.6969 4.3101 27.3848 3.62226C28.0726 2.93442 28.5908 2.09587 28.8984 1.17303C29.2056 2.09606 29.7239 2.9347 30.4121 3.62225Z" fill="#B0B5CA"/>
<path d="M24.3945 73.1926H28.3574V79.5324H24.3945V73.1926Z" fill="#49BDFF"/>
<path d="M27.4414 39.3663L27.1152 39.4152C26.4042 39.4146 25.6994 39.547 25.0371 39.8058L24.9824 39.6652L22.1738 34.13C23.7273 33.431 25.4118 33.0708 27.1152 33.0734L27.1641 33.0753C27.0618 34.9259 27.1213 36.7819 27.3418 38.6222C27.3711 38.8722 27.4043 39.1202 27.4414 39.3663Z" fill="#3090FC"/>
<path d="M24.9824 39.6652L25.0371 39.8058C24.5955 39.9751 24.1773 40.2002 23.793 40.4758L23.7676 40.4406L18.5742 36.8039L18.4805 36.7121C19.539 35.6277 20.7919 34.7518 22.1738 34.1301L24.9824 39.6652Z" fill="#49BDFF"/>
<path d="M20.4316 73.1926H24.3945V79.5324H20.4316V73.1926Z" fill="#3090FC"/>
<path d="M23.7676 40.4406L23.793 40.4758C23.2601 40.8524 22.7962 41.3182 22.4219 41.8527L16.2871 40.5285L15.9785 40.4601C16.5709 39.0654 17.4195 37.7941 18.4805 36.7121L18.5742 36.8039L23.7676 40.4406Z" fill="#3090FC"/>
<path d="M16.2871 40.5285L22.4219 41.8527C21.7353 42.8192 21.3673 43.9758 21.3691 45.1613H15.0273C15.026 43.5463 15.3495 41.9476 15.9785 40.4601L16.2871 40.5285Z" fill="#49BDFF"/>
<path d="M21.3691 53.0871V57.4933C21.3691 57.5187 21.3691 57.5461 21.3672 57.5715L21.1543 57.5676L15.0273 56.9465V53.0871H21.3691Z" fill="#3090FC"/>
<path d="M21.3691 49.1242V53.0871H21.1699H15.0273V49.1242H21.1699H21.3691Z" fill="#49BDFF"/>
<path d="M21.3691 45.1613V49.1242H21.1699H15.0273V45.1613H21.1699H21.3691Z" fill="#3090FC"/>
<path d="M21.1543 57.5676L21.3672 57.5715C21.3534 59.7848 20.6053 61.9308 19.2402 63.673L19.0566 63.5324L14.0586 59.9934C14.6825 59.3103 15.028 58.4184 15.0273 57.4934V56.9465L21.1543 57.5676Z" fill="#49BDFF"/>
<path d="M16.4688 73.1926H20.4316V79.5324H16.4688V73.1926Z" fill="#49BDFF"/>
<path d="M19.0566 63.5324L19.2402 63.673C18.0563 65.1898 16.464 66.337 14.6504 66.9797L14.5371 66.6633L10.8711 61.4914L10.8613 61.2219C11.0098 61.2141 11.1602 61.2101 11.3105 61.2101C11.8281 61.2102 12.34 61.1019 12.8133 60.8924C13.2865 60.6828 13.7107 60.3766 14.0586 59.9933L19.0566 63.5324Z" fill="#3090FC"/>
<path d="M12.5059 73.1926H16.4687V79.5324H12.5059V73.1926Z" fill="#3090FC"/>
<path d="M14.5371 66.6633L14.6504 66.9797C13.5776 67.3581 12.4481 67.551 11.3105 67.55C11.0482 67.5492 10.7871 67.586 10.5352 67.6594L10.5117 67.5754L5.78125 63.3547L5.48438 63.3039C7.00447 62.0468 8.89106 61.3163 10.8613 61.2219L10.8711 61.4914L14.5371 66.6633Z" fill="#49BDFF"/>
<path d="M12.5059 73.1926V79.5324H11.3105C9.80739 79.5341 8.32718 79.1637 7.00195 78.4543L7.13086 78.2101L9.83594 72.7766C10.2794 73.0492 10.7899 73.1933 11.3105 73.1926H12.5059Z" fill="#49BDFF"/>
<path d="M10.5117 67.5754L10.5352 67.6594C10.1381 67.7733 9.77086 67.973 9.45938 68.2443C9.14789 68.5156 8.89974 68.852 8.73242 69.2297L8.65039 69.1926L2.54688 67.6945C3.07613 65.9754 4.09734 64.4491 5.48438 63.3039L5.78125 63.3547L10.5117 67.5754Z" fill="#3090FC"/>
<path d="M9.83594 72.7766L7.13086 78.2101L7.00195 78.4543C5.21652 77.4989 3.79561 75.9819 2.95898 74.1379L3.25586 74.0422L8.5293 70.8488C8.59742 71.2446 8.74922 71.6213 8.97454 71.9537C9.19987 72.2862 9.49354 72.5667 9.83594 72.7766Z" fill="#3090FC"/>
<path d="M8.6504 69.1926L8.73243 69.2297C8.50505 69.7371 8.43432 70.3009 8.52931 70.8488L3.25587 74.0422L2.959 74.1379C2.42277 72.955 2.14638 71.671 2.14845 70.3723C2.14829 69.4649 2.28256 68.5625 2.54689 67.6945L8.6504 69.1926Z" fill="#49BDFF"/>
<path d="M61.1406 34.5773C61.2587 35.4522 61.1142 36.3423 60.7255 37.1349C60.3368 37.9275 59.7213 38.5867 58.9573 39.0289C58.1933 39.4711 57.3151 39.6764 56.4342 39.6187C55.5533 39.5609 54.7095 39.2428 54.0097 38.7046C53.3099 38.1665 52.7858 37.4326 52.5038 36.596C52.2219 35.7595 52.1948 34.8581 52.4261 34.0061C52.6573 33.1542 53.1365 32.3901 53.8027 31.811C54.4689 31.2318 55.2922 30.8636 56.168 30.7531C56.7456 30.6776 57.3324 30.7166 57.895 30.868C58.4575 31.0193 58.9847 31.28 59.4465 31.6351C59.9083 31.9903 60.2956 32.4329 60.5862 32.9377C60.8769 33.4425 61.0653 33.9997 61.1406 34.5773Z" fill="#50A6EA"/>
<path d="M69.5098 79.2922C71.1278 79.2922 72.4395 77.9805 72.4395 76.3625C72.4395 74.7445 71.1278 73.4328 69.5098 73.4328C67.8917 73.4328 66.5801 74.7445 66.5801 76.3625C66.5801 77.9805 67.8917 79.2922 69.5098 79.2922Z" fill="#ED6337"/>
<path d="M57.791 79.2922C59.409 79.2922 60.7207 77.9805 60.7207 76.3625C60.7207 74.7445 59.409 73.4328 57.791 73.4328C56.173 73.4328 54.8613 74.7445 54.8613 76.3625C54.8613 77.9805 56.173 79.2922 57.791 79.2922Z" fill="#ED6337"/>
<path d="M46.0723 79.2922C47.6903 79.2922 49.002 77.9805 49.002 76.3625C49.002 74.7445 47.6903 73.4328 46.0723 73.4328C44.4542 73.4328 43.1426 74.7445 43.1426 76.3625C43.1426 77.9805 44.4542 79.2922 46.0723 79.2922Z" fill="#ED6337"/>
<path d="M32.0957 63.6183V69.5558H37.8516H37.9551V63.6183H32.0957Z" fill="#AEDEEA"/>
<path d="M35.9942 48.5441C34.6571 45.6313 33.7499 42.5398 33.3008 39.3664C33.2637 39.1203 33.2305 38.8723 33.2012 38.6223C32.9807 36.782 32.9212 34.926 33.0235 33.0754C33.875 17.3078 46.2832 3.50311 62.502 1.47382C62.9417 1.41887 63.3803 1.37271 63.8178 1.33534C61.4279 1.12905 59.0228 1.17546 56.6426 1.47382C40.4239 3.50311 28.0157 17.3078 27.1641 33.0754C27.0619 34.926 27.1213 36.782 27.3418 38.6223C27.3711 38.8723 27.4043 39.1203 27.4414 39.3664C27.8905 42.5398 28.7977 45.6313 30.1348 48.5441C31.4409 51.4198 32.1098 54.5439 32.0957 57.7023V63.6183H37.9551V57.7023C37.9692 54.5439 37.3002 51.4198 35.9942 48.5441Z" fill="#A6B7D0"/>
<path d="M34.2168 79.6808V73.0441C34.2167 72.586 34.3069 72.1324 34.4822 71.7092C34.6575 71.2859 34.9144 70.9014 35.2384 70.5774C35.5623 70.2535 35.9469 69.9966 36.3701 69.8213C36.7934 69.646 37.247 69.5558 37.7051 69.5558H31.8457C31.3876 69.5558 30.934 69.646 30.5107 69.8213C30.0875 69.9966 29.7029 70.2535 29.379 70.5774C29.0551 70.9014 28.7981 71.2859 28.6228 71.7092C28.4476 72.1324 28.3574 72.586 28.3574 73.0441V79.6808C28.3572 80.139 28.4473 80.5927 28.6225 81.016C28.7978 81.4393 29.0547 81.8239 29.3787 82.1479C29.7026 82.4719 30.0872 82.7288 30.5106 82.904C30.9339 83.0792 31.3876 83.1693 31.8457 83.1691H37.7051C37.2469 83.1693 36.7932 83.0792 36.3699 82.904C35.9466 82.7288 35.562 82.4719 35.238 82.1479C34.9141 81.8239 34.6571 81.4393 34.4819 81.016C34.3067 80.5927 34.2166 80.139 34.2168 79.6808Z" fill="#C24E38"/>
<path d="M24.5645 6.24762C25.3138 6.49933 25.9946 6.9212 26.5536 7.48016C27.1125 8.03912 27.5343 8.71997 27.786 9.46931C27.8637 9.7027 28.0129 9.9057 28.2125 10.0496C28.412 10.1934 28.6518 10.2708 28.8978 10.2708C29.1438 10.2708 29.3836 10.1934 29.5831 10.0496C29.7827 9.9057 29.9319 9.7027 30.0096 9.46931C30.2614 8.71984 30.6834 8.03892 31.2425 7.47995C31.8017 6.92098 32.4827 6.49917 33.2323 6.24762C33.4656 6.16984 33.6685 6.02061 33.8123 5.82109C33.9561 5.62156 34.0335 5.38185 34.0335 5.13591C34.0335 4.88996 33.9561 4.65025 33.8123 4.45072C33.6685 4.2512 33.4656 4.10197 33.2323 4.02419C32.4827 3.77246 31.8016 3.35048 31.2425 2.79134C30.6833 2.23221 30.2613 1.55113 30.0096 0.801531C29.9319 0.56814 29.7827 0.365132 29.5831 0.221273C29.3836 0.0774145 29.1438 0 28.8978 0C28.6518 0 28.412 0.0774145 28.2125 0.221273C28.0129 0.365132 27.8637 0.56814 27.786 0.801531C27.5343 1.55113 27.1123 2.23221 26.5531 2.79134C25.994 3.35048 25.3129 3.77246 24.5633 4.02419C24.33 4.10197 24.1271 4.2512 23.9833 4.45072C23.8395 4.65025 23.7621 4.88996 23.7621 5.13591C23.7621 5.38185 23.8395 5.62156 23.9833 5.82109C24.1271 6.02061 24.33 6.16984 24.5633 6.24762H24.5645ZM28.8979 3.65641C29.3197 4.21606 29.8176 4.71404 30.3772 5.13591C29.8175 5.5576 29.3196 6.05552 28.8979 6.6152C28.4761 6.05557 27.9781 5.55765 27.4184 5.13591C27.978 4.71399 28.476 4.21602 28.8979 3.65641Z" fill="#284268"/>
<path d="M98.2227 9.96829C97.473 9.71664 96.7919 9.29469 96.2328 8.73554C95.6736 8.1764 95.2517 7.49527 95 6.74563C94.9222 6.51231 94.773 6.30938 94.5735 6.16558C94.374 6.02178 94.1342 5.9444 93.8883 5.9444C93.6424 5.9444 93.4026 6.02178 93.2031 6.16558C93.0036 6.30938 92.8544 6.51231 92.7766 6.74563C92.525 7.49517 92.1032 8.17622 91.5443 8.73536C90.9853 9.2945 90.3044 9.71651 89.5549 9.96829C89.3216 10.0461 89.1186 10.1953 88.9748 10.3948C88.831 10.5944 88.7537 10.8341 88.7537 11.08C88.7537 11.326 88.831 11.5657 88.9748 11.7652C89.1186 11.9647 89.3216 12.1139 89.5549 12.1917C90.3042 12.4435 90.9851 12.8653 91.5441 13.4242C92.1031 13.9831 92.5251 14.6639 92.777 15.4132C92.8548 15.6465 93.004 15.8495 93.2035 15.9933C93.403 16.1371 93.6427 16.2144 93.8887 16.2144C94.1346 16.2144 94.3743 16.1371 94.5739 15.9933C94.7734 15.8495 94.9226 15.6465 95.0004 15.4132C95.2522 14.6636 95.6742 13.9826 96.2333 13.4235C96.7924 12.8643 97.4735 12.4423 98.2231 12.1906C98.4564 12.1128 98.6593 11.9635 98.8031 11.764C98.9469 11.5645 99.0243 11.3248 99.0243 11.0788C99.0243 10.8329 98.9469 10.5932 98.8031 10.3937C98.6593 10.1941 98.4564 10.0449 98.2231 9.96712L98.2227 9.96829ZM93.8887 12.5597C93.4669 11.9999 92.9689 11.5018 92.4092 11.08C92.969 10.6584 93.467 10.1604 93.8887 9.60071C94.3104 10.1604 94.8084 10.6583 95.3682 11.08C94.8084 11.5018 94.3104 11.9999 93.8887 12.5597Z" fill="#284268"/>
<path d="M88.0099 26.1064C87.9637 25.9596 87.8891 25.8233 87.7902 25.7053C87.6914 25.5874 87.5703 25.49 87.4338 25.4188C87.1583 25.2751 86.8369 25.2467 86.5404 25.34C86.2438 25.4332 85.9965 25.6404 85.8528 25.916C85.7091 26.1916 85.6807 26.513 85.7739 26.8095C86.769 29.9841 87.1455 33.3202 86.8829 36.6367C86.8581 36.9464 86.9573 37.2534 87.1588 37.49C87.3602 37.7266 87.6474 37.8735 87.9571 37.8984C87.989 37.9009 88.0206 37.9023 88.0521 37.9023C88.3464 37.902 88.6299 37.7908 88.8461 37.591C89.0623 37.3912 89.1954 37.1174 89.2189 36.824C89.5057 33.2072 89.0953 29.5689 88.0097 26.107L88.0099 26.1064Z" fill="#284268"/>
<path d="M85.7496 20.8625C85.1821 19.8469 84.5521 18.8675 83.8635 17.9298C83.6784 17.6823 83.403 17.5179 83.0972 17.4725C82.7915 17.427 82.4802 17.5042 82.2311 17.6872C81.982 17.8702 81.8153 18.1443 81.7673 18.4496C81.7193 18.755 81.7939 19.0669 81.9748 19.3175C82.606 20.177 83.1833 21.0746 83.7035 22.0054C83.7779 22.141 83.8784 22.2604 83.9992 22.3569C84.12 22.4534 84.2587 22.5251 84.4073 22.5677C84.5559 22.6104 84.7115 22.6232 84.8651 22.6055C85.0186 22.5878 85.1672 22.5398 85.3022 22.4644C85.4371 22.389 85.5559 22.2877 85.6515 22.1662C85.7471 22.0447 85.8178 21.9055 85.8593 21.7566C85.9009 21.6077 85.9126 21.452 85.8938 21.2986C85.875 21.1451 85.826 20.9969 85.7496 20.8625Z" fill="#284268"/>
<path d="M19.3797 25.1803C19.5319 25.2035 19.6871 25.1966 19.8366 25.1598C19.9861 25.123 20.1268 25.0571 20.2508 24.9659C20.3747 24.8747 20.4795 24.7599 20.5591 24.6281C20.6387 24.4964 20.6915 24.3502 20.7145 24.198C21.0477 22.0204 21.6057 19.8832 22.3795 17.8207C23.1722 15.7101 24.1792 13.6865 25.3848 11.7814C25.4693 11.6514 25.5271 11.5059 25.5549 11.3533C25.5827 11.2007 25.5799 11.0442 25.5468 10.8927C25.5136 10.7412 25.4507 10.5978 25.3618 10.4708C25.2728 10.3438 25.1595 10.2357 25.0284 10.1528C24.8973 10.0699 24.7511 10.0138 24.5983 9.98786C24.4454 9.96189 24.2888 9.96652 24.1378 10.0015C23.9867 10.0365 23.844 10.1011 23.7181 10.1916C23.5922 10.2821 23.4855 10.3967 23.4042 10.5287C22.1126 12.5694 21.0338 14.7373 20.1848 16.9982C19.3544 19.2128 18.7558 21.5075 18.3985 23.8455C18.3517 24.1526 18.4288 24.4657 18.6128 24.716C18.7968 24.9663 19.0727 25.1333 19.3797 25.1803Z" fill="#284268"/>
<path d="M57.791 80.4644C58.6022 80.4644 59.3952 80.2239 60.0697 79.7732C60.7442 79.3225 61.2699 78.6819 61.5804 77.9324C61.8908 77.183 61.972 76.3583 61.8138 75.5627C61.6555 74.7671 61.2649 74.0362 60.6912 73.4626C60.1176 72.889 59.3868 72.4984 58.5912 72.3401C57.7956 72.1818 56.9709 72.2631 56.2214 72.5735C55.4719 72.8839 54.8314 73.4096 54.3807 74.0841C53.93 74.7586 53.6895 75.5516 53.6895 76.3629C53.6907 77.4503 54.1232 78.4928 54.8921 79.2617C55.6611 80.0306 56.7036 80.4632 57.791 80.4644ZM57.791 74.605C58.1387 74.605 58.4785 74.7081 58.7676 74.9013C59.0567 75.0944 59.282 75.369 59.415 75.6902C59.5481 76.0114 59.5829 76.3648 59.515 76.7058C59.4472 77.0468 59.2798 77.36 59.034 77.6058C58.7881 77.8516 58.4749 78.0191 58.1339 78.0869C57.793 78.1547 57.4395 78.1199 57.1183 77.9869C56.7971 77.8538 56.5226 77.6285 56.3294 77.3394C56.1363 77.0504 56.0332 76.7105 56.0332 76.3629C56.0337 75.8968 56.2191 75.45 56.5486 75.1205C56.8782 74.7909 57.325 74.6056 57.791 74.605Z" fill="#284268"/>
<path d="M69.5098 80.4644C70.321 80.4644 71.114 80.2239 71.7885 79.7732C72.463 79.3225 72.9887 78.6819 73.2991 77.9324C73.6095 77.183 73.6908 76.3583 73.5325 75.5627C73.3742 74.7671 72.9836 74.0362 72.41 73.4626C71.8364 72.889 71.1056 72.4984 70.3099 72.3401C69.5143 72.1818 68.6896 72.2631 67.9402 72.5735C67.1907 72.8839 66.5501 73.4096 66.0994 74.0841C65.6488 74.7586 65.4082 75.5516 65.4082 76.3629C65.4094 77.4503 65.842 78.4928 66.6109 79.2617C67.3798 80.0306 68.4223 80.4632 69.5098 80.4644ZM69.5098 74.605C69.8574 74.605 70.1973 74.7081 70.4863 74.9013C70.7754 75.0944 71.0007 75.369 71.1338 75.6902C71.2668 76.0114 71.3016 76.3648 71.2338 76.7058C71.166 77.0468 70.9986 77.36 70.7527 77.6058C70.5069 77.8516 70.1937 78.0191 69.8527 78.0869C69.5117 78.1547 69.1583 78.1199 68.8371 77.9869C68.5159 77.8538 68.2413 77.6285 68.0482 77.3394C67.855 77.0504 67.7519 76.7105 67.7519 76.3629C67.7525 75.8968 67.9378 75.45 68.2674 75.1205C68.5969 74.7909 69.0437 74.6056 69.5098 74.605Z" fill="#284268"/>
<path d="M46.0723 80.4644C46.8835 80.4644 47.6765 80.2239 48.351 79.7732C49.0255 79.3225 49.5512 78.6819 49.8616 77.9324C50.1721 77.183 50.2533 76.3583 50.095 75.5627C49.9368 74.7671 49.5461 74.0362 48.9725 73.4626C48.3989 72.889 47.6681 72.4984 46.8724 72.3401C46.0768 72.1818 45.2521 72.2631 44.5027 72.5735C43.7532 72.8839 43.1126 73.4096 42.6619 74.0841C42.2113 74.7586 41.9707 75.5516 41.9707 76.3629C41.9719 77.4503 42.4045 78.4928 43.1734 79.2617C43.9423 80.0306 44.9848 80.4632 46.0723 80.4644ZM46.0723 74.605C46.4199 74.605 46.7598 74.7081 47.0489 74.9013C47.3379 75.0944 47.5632 75.369 47.6963 75.6902C47.8293 76.0114 47.8641 76.3648 47.7963 76.7058C47.7285 77.0468 47.5611 77.36 47.3152 77.6058C47.0694 77.8516 46.7562 78.0191 46.4152 78.0869C46.0742 78.1547 45.7208 78.1199 45.3996 77.9869C45.0784 77.8538 44.8038 77.6285 44.6107 77.3394C44.4175 77.0504 44.3145 76.7105 44.3145 76.3629C44.315 75.8968 44.5003 75.45 44.8299 75.1205C45.1594 74.7909 45.6062 74.6056 46.0723 74.605Z" fill="#284268"/>
<path d="M52.282 31.7078C51.8263 32.2857 51.4904 32.9488 51.2942 33.6581C51.0979 34.3675 51.0452 35.1088 51.139 35.8388C51.3154 37.1908 51.9779 38.4323 53.0028 39.3313C54.0278 40.2304 55.345 40.7255 56.7084 40.7242C56.9467 40.7242 57.1848 40.7092 57.4213 40.6793C58.1532 40.5894 58.8602 40.356 59.5018 39.9926C60.1434 39.6292 60.7071 39.1428 61.1605 38.5613C61.6163 37.9834 61.9521 37.3203 62.1484 36.611C62.3446 35.9016 62.3974 35.1602 62.3035 34.4302C62.1558 33.3316 61.6873 32.301 60.9567 31.4673C60.2262 30.6337 59.2659 30.034 58.1962 29.7434C57.1265 29.4528 55.9948 29.4842 54.9428 29.8336C53.8909 30.183 52.9653 30.8349 52.282 31.7078ZM54.1277 33.1531C54.3931 32.8131 54.7229 32.5289 55.0982 32.3165C55.4736 32.1042 55.8872 31.968 56.3152 31.9158C56.4538 31.8982 56.5933 31.8894 56.733 31.8894C57.5262 31.8869 58.2931 32.1733 58.8905 32.6952C59.4879 33.217 59.8748 33.9385 59.9789 34.7248C60.033 35.1477 60.0021 35.5772 59.888 35.9881C59.774 36.399 59.5791 36.7829 59.3148 37.1175C58.9167 37.626 58.3777 38.0061 57.7651 38.2105C57.1525 38.4149 56.4933 38.4345 55.8697 38.267C55.246 38.0994 54.6853 37.7521 54.2576 37.2683C53.8299 36.7844 53.554 36.1854 53.4642 35.5459C53.41 35.1228 53.4408 34.6932 53.5547 34.2822C53.6687 33.8712 53.8635 33.4871 54.1277 33.1523V33.1531Z" fill="#284268"/>
<path d="M95.4148 30.258C94.7127 24.7611 92.6956 19.5145 89.5344 14.9631C85.8874 9.74134 80.8821 5.61616 75.06 3.03377C69.2378 0.451385 62.8203 -0.489914 56.5018 0.3117C47.4402 1.44451 39.2631 6.10682 33.4805 13.4367C29.1617 18.9117 26.6279 25.3117 26.0664 31.9472C22.7455 32.216 19.6471 33.7242 17.387 36.1722C15.1269 38.6202 13.8704 41.8289 13.8672 45.1607V57.4926C13.8651 58.1682 13.5954 58.8154 13.1172 59.2926C12.6389 59.7697 11.991 60.0379 11.3154 60.0385C9.95844 60.0322 8.61358 60.294 7.35805 60.8089C6.10252 61.3237 4.96105 62.0815 3.99916 63.0387C3.03727 63.9959 2.27392 65.1337 1.75291 66.3867C1.2319 67.6396 0.963508 68.9832 0.963135 70.3402C0.962762 71.6972 1.23042 73.0409 1.75074 74.2942C2.27105 75.5475 3.03379 76.6856 3.99515 77.6434C4.95651 78.6011 6.09757 79.3595 7.35281 79.875C8.60806 80.3906 9.95278 80.6532 11.3098 80.6476H27.3002C27.5179 81.6933 28.0881 82.6325 28.9154 83.308C29.7428 83.9835 30.777 84.3544 31.8451 84.3586H83.7369C86.306 84.3586 88.4765 82.2508 88.4765 79.6814V73.0441C88.4618 71.9433 88.0636 70.8821 87.3506 70.0433C86.6376 69.2045 85.6544 68.6405 84.5703 68.4486V59.9295C88.6082 56.2033 91.6987 51.5673 93.5848 46.4066C95.4709 41.246 96.0983 35.7098 95.4148 30.258ZM35.3186 14.889C40.7172 8.0449 48.342 3.69451 56.7885 2.63729C63.6125 1.76307 70.5379 3.0793 76.5654 6.39607C76.6631 6.44979 76.7607 6.50682 76.8572 6.5617L56.5252 24.1849C56.1321 24.1925 55.7397 24.2209 55.3496 24.2699C53.9137 24.4462 52.5266 24.9038 51.2677 25.6167C50.0089 26.3297 48.903 27.2838 48.0133 28.4246C47.1206 29.5565 46.4627 30.8551 46.0782 32.2444C45.6937 33.6337 45.5903 35.0858 45.774 36.5156C46.4717 42.0396 51.225 46.0873 56.6941 46.0873C57.1619 46.0872 57.6293 46.0577 58.0933 45.999C58.4654 45.9521 58.8319 45.887 59.193 45.8037L82.2266 60.1053V62.4836H33.2031V57.7015C33.2332 54.3757 32.5385 51.0832 31.1672 48.0531C29.781 45.0222 28.8776 41.793 28.4896 38.4828C27.4863 30.1096 29.9219 21.7304 35.3186 14.889ZM56.7467 26.5265C58.8488 26.5217 60.8808 27.2825 62.4629 28.6667C64.045 30.051 65.0689 31.9639 65.3434 34.048C65.4873 35.1707 65.4059 36.3108 65.1037 37.4016C64.8016 38.4924 64.2849 39.512 63.5838 40.4006C62.8822 41.2997 62.0102 42.0517 61.0178 42.6135C60.0253 43.1753 58.9318 43.5358 57.7998 43.6746C53.0455 44.2736 48.6937 40.9312 48.099 36.2226C47.9551 35.0999 48.0366 33.9598 48.3387 32.8689C48.6409 31.7781 49.1577 30.7585 49.8588 29.8699C50.5603 28.9708 51.4322 28.2188 52.4247 27.657C53.4171 27.0952 54.5106 26.7346 55.6426 26.5959C56.0088 26.5498 56.3776 26.5266 56.7467 26.5265ZM82.2266 64.8273V68.3429H33.2031V64.8273H82.2266ZM25.9449 34.3094C25.927 35.6465 25.989 36.9835 26.1307 38.3133C25.9701 38.336 25.8113 38.3644 25.6543 38.3984L23.8066 34.759C24.5024 34.5374 25.2188 34.3868 25.9449 34.3094ZM21.6615 35.7119L23.0982 38.542L20.3418 36.6109C20.7592 36.2794 21.2003 35.979 21.6615 35.7119ZM18.6459 38.2844L21.8531 40.5305L17.7066 39.6355C17.9854 39.1622 18.2994 38.7106 18.6459 38.2844ZM16.7238 41.7918L20.6615 42.6265C20.505 43.05 20.3833 43.4856 20.2977 43.9289H16.2635C16.3389 43.202 16.4932 42.4855 16.7238 41.792V41.7918ZM16.2109 46.2726H20.1172V48.0304H16.2109V46.2726ZM16.2109 50.3742H20.1172V51.9367H16.2109V50.3742ZM16.2109 54.2804H20.1172V56.2922L16.2109 55.8877V54.2804ZM16.143 58.2375L20.1199 58.64C19.9655 59.8352 19.5678 60.9861 18.9514 62.0217L15.6701 59.6998C15.9045 59.2406 16.0641 58.747 16.143 58.2375ZM14.1312 61.482L17.4959 63.8633C16.808 64.5326 16.0165 65.0866 15.1521 65.5039L12.7783 62.1566C13.2618 62.0035 13.7185 61.7759 14.1318 61.482H14.1312ZM10.1273 62.4703L12.8076 66.2502C12.3128 66.3354 11.8117 66.3785 11.3096 66.3791C11.1889 66.3791 11.0697 66.3867 10.9516 66.3972L7.52343 63.3383C8.33441 62.8998 9.21565 62.606 10.1275 62.4703H10.1273ZM3.6 72.464C3.30311 71.3734 3.24173 70.2322 3.41992 69.116L7.33222 70.0763C7.3289 70.1197 7.32734 70.1635 7.32558 70.207L3.6 72.464ZM6.53574 76.7744C5.74926 76.1856 5.07718 75.4577 4.55273 74.6269L7.9707 72.5566C8.09208 72.7399 8.22821 72.913 8.37773 73.0742L6.53574 76.7744ZM8.19863 67.8756L4.12734 66.8762C4.50688 66.1007 5.00903 65.3916 5.61445 64.7762L8.60449 67.4445C8.45874 67.5779 8.32309 67.7219 8.19863 67.8754V67.8756ZM11.3281 78.3039H11.3098C10.3874 78.3141 9.47038 78.1634 8.5998 77.8586L10.4072 74.2609C10.7019 74.3408 11.0047 74.3867 11.3098 74.3976H11.3281V78.3039ZM15.2344 78.3039H13.6719V74.3976H15.2344V78.3039ZM19.3359 78.3039H17.5781V74.3976H19.3359V78.3039ZM23.2422 78.3039H21.6797V74.3976H23.2422V78.3039ZM27.1484 78.3039H25.5859V74.3976H27.1484V78.3039ZM27.3002 72.0539H11.3098C10.8709 72.0496 10.4514 71.8722 10.1427 71.5603C9.83389 71.2484 9.66076 70.8272 9.66093 70.3883C9.65659 70.1735 9.69489 69.96 9.77362 69.7601C9.85235 69.5602 9.96995 69.3779 10.1196 69.2238C10.2693 69.0696 10.448 68.9467 10.6455 68.8622C10.843 68.7776 11.0553 68.733 11.2701 68.731C14.2443 68.7243 17.094 67.5366 19.1926 65.429C21.2912 63.3215 22.4668 60.4667 22.4609 57.4926V45.1607C22.471 44.0583 22.8753 42.9958 23.6008 42.1656C24.3262 41.3354 25.3249 40.7923 26.416 40.6346C26.9185 43.5343 27.7931 46.3571 29.018 49.033C30.2538 51.7546 30.8822 54.7126 30.8594 57.7015V68.4765C29.1016 68.8385 27.7016 70.2961 27.3002 72.0539ZM36.7187 82.0148H31.8451C31.2254 82.0116 30.6318 81.7654 30.1918 81.329C29.7518 80.8926 29.5006 80.3011 29.4922 79.6814V73.0441C29.4997 72.422 29.7498 71.8274 30.1893 71.387C30.6289 70.9467 31.223 70.6954 31.8451 70.6867H36.7187V82.0148ZM76.5625 82.0148H39.0625V70.6867H76.5625V82.0148ZM86.1328 73.0441V79.6814C86.1328 80.9584 85.0139 82.0148 83.7369 82.0148H78.9062V70.6867H83.7369C84.3635 70.6937 84.9631 70.9432 85.4098 71.3827C85.8565 71.8222 86.1156 72.4177 86.1328 73.0441ZM83.2113 57.9578L61.9627 44.7656C63.3085 44.0429 64.4892 43.0481 65.4297 41.8443C66.3224 40.7124 66.9802 39.4137 67.3647 38.0244C67.7491 36.635 67.8524 35.1829 67.6685 33.7531C67.3901 31.6022 66.4803 29.5822 65.0541 27.9483C63.6279 26.3144 61.7494 25.1399 59.6558 24.5734L78.9543 7.84627C82.3363 10.1013 85.2664 12.9692 87.5935 16.3019C90.5494 20.5354 92.4247 25.4278 93.0558 30.5523C93.6862 35.5727 93.1232 40.671 91.4126 45.4329C89.702 50.1948 86.8922 54.486 83.2113 57.9578Z" fill="#284268"/>
</svg>
