<svg width="70" height="99" viewBox="0 0 70 99" fill="none" xmlns="http://www.w3.org/2000/svg">
<path d="M68.1289 4.85352V60.0664C68.1289 60.5498 68.0336 61.0284 67.8485 61.475C67.6635 61.9215 67.3922 62.3272 67.0504 62.6689C66.7085 63.0106 66.3026 63.2816 65.856 63.4664C65.4093 63.6513 64.9306 63.7463 64.4473 63.7461H16.3711V1.17188H64.4473C65.4237 1.17193 66.3601 1.55983 67.0505 2.25026C67.741 2.94069 68.1289 3.8771 68.1289 4.85352Z" fill="#ED6337"/>
<path d="M32.0705 32.7149C32.071 29.1572 33.3086 25.7103 35.5712 22.9648C37.8339 20.2193 40.9807 18.3459 44.4728 17.6656C42.2525 17.2329 39.964 17.2968 37.7713 17.8527C35.5786 18.4087 33.5361 19.443 31.7902 20.8814C30.0444 22.3198 28.6385 24.1267 27.6733 26.1725C26.7081 28.2183 26.2075 30.4524 26.2075 32.7145C26.2075 34.9766 26.7081 37.2106 27.6733 39.2564C28.6385 41.3023 30.0444 43.1092 31.7902 44.5476C33.5361 45.986 35.5786 47.0202 37.7713 47.5762C39.964 48.1322 42.2525 48.1961 44.4728 47.7633C40.9809 47.083 37.8341 45.2098 35.5715 42.4644C33.3089 39.7191 32.0712 36.2724 32.0705 32.7149Z" fill="#B7391C"/>
<path d="M32.9648 85.832V96.875L25.6016 89.5137L18.2402 96.875V85.832V74.7891H32.9648V85.832Z" fill="#50A6EA"/>
<path d="M16.3711 1.17188V63.7461H9.23438C7.28151 63.7461 5.40863 64.5219 4.02775 65.9027C2.64687 67.2836 1.87109 69.1565 1.87109 71.1094V8.5332C1.87161 6.58068 2.64761 4.7083 4.02844 3.32784C5.40927 1.94738 7.28185 1.17187 9.23438 1.17188H16.3711Z" fill="#475673"/>
<path d="M52.2755 32.5723C52.5344 33.2503 52.5251 34.0015 52.2494 34.6729C51.9737 35.3443 51.4524 35.8853 50.7917 36.1857C50.1309 36.486 49.3806 36.5231 48.6934 36.2894C48.0063 36.0557 47.4341 35.5688 47.0935 34.9279C46.7529 34.287 46.6695 33.5404 46.8603 32.8401C47.0511 32.1399 47.5017 31.5387 48.1204 31.1592C48.739 30.7796 49.4791 30.6502 50.1898 30.7974C50.9005 30.9446 51.5283 31.3572 51.9454 31.9512C52.0807 32.1437 52.1916 32.3524 52.2755 32.5723Z" fill="#FADF4A"/>
<path d="M7.73047 8.5332C7.73099 6.58068 8.50699 4.7083 9.88781 3.32784C11.2686 1.94738 13.1412 1.17187 15.0938 1.17188H9.23438C7.28185 1.17187 5.40927 1.94738 4.02844 3.32784C2.64761 4.7083 1.87161 6.58068 1.87109 8.5332V71.1094C1.87136 69.4176 2.45397 67.7775 3.521 66.4647C4.58804 65.1519 6.07447 64.2464 7.73047 63.9004V8.5332Z" fill="#748391"/>
<path d="M9.23379 64.8438H64.4473C67.123 64.8438 69.375 62.742 69.375 60.0662V4.85273C69.375 2.17695 67.123 0 64.4473 0H9.23379C4.52832 0 0.625 3.82813 0.625 8.53359V78.4707C0.625 83.176 4.52832 86.9141 9.23379 86.9141H17.2266V96.875C17.2308 97.1081 17.3034 97.3349 17.4352 97.5272C17.5669 97.7196 17.7522 97.8691 17.9681 97.9573C18.1839 98.0454 18.4209 98.0684 18.6497 98.0234C18.8784 97.9783 19.089 97.8672 19.2553 97.7037L25.793 91.1705L32.3287 97.7037C32.5489 97.9236 32.8474 98.047 33.1586 98.0469C33.326 98.047 33.492 98.0168 33.6486 97.9576C33.8677 97.8711 34.0567 97.7227 34.1927 97.5304C34.3286 97.3381 34.4056 97.1103 34.4141 96.875V86.9141H68.1279C68.4387 86.9141 68.7368 86.7906 68.9566 86.5708C69.1763 86.3511 69.2998 86.053 69.2998 85.7422C69.2998 85.4314 69.1763 85.1333 68.9566 84.9135C68.7368 84.6938 68.4387 84.5703 68.1279 84.5703H34.4141V75.9766H68.1279C68.4387 75.9766 68.7368 75.8531 68.9566 75.6333C69.1763 75.4136 69.2998 75.1155 69.2998 74.8047C69.2998 74.4939 69.1763 74.1958 68.9566 73.976C68.7368 73.7563 68.4387 73.6328 68.1279 73.6328H12.9146C12.6038 73.6328 12.3058 73.7563 12.086 73.976C11.8662 74.1958 11.7428 74.4939 11.7428 74.8047C11.7428 75.1155 11.8662 75.4136 12.086 75.6333C12.3058 75.8531 12.6038 75.9766 12.9146 75.9766H17.2266V84.5703H9.23379C5.82031 84.5703 2.96875 81.8838 2.96875 78.4707V71.1088C2.98468 69.4521 3.64986 67.8678 4.82135 66.6964C5.99284 65.5249 7.57713 64.8597 9.23379 64.8438ZM17.6172 2.34375H64.4473C65.8307 2.34375 67.0312 3.46934 67.0312 4.85273V60.0662C67.0312 61.4496 65.8307 62.5 64.4473 62.5H17.6172V2.34375ZM2.96875 8.53359C2.96875 5.12051 5.82031 2.34375 9.23379 2.34375H15.2734V62.5H9.23379C8.05912 62.5133 6.89912 62.7627 5.82282 63.2335C4.74652 63.7043 3.77591 64.3867 2.96875 65.2402V8.53359ZM19.5703 75.9766H32.0703V94.0459L26.6676 88.6846C26.4401 88.4644 26.1359 88.3413 25.8193 88.3413C25.5028 88.3413 25.1986 88.4644 24.9711 88.6846L19.5703 94.0459V75.9766Z" fill="#284268"/>
<path d="M56.9381 32.4219H56.9197C56.6112 32.4236 56.3157 32.5463 56.0966 32.7635C55.8775 32.9807 55.7523 33.2751 55.7479 33.5836C55.6999 37.018 54.3243 40.3005 51.9093 42.7429C49.4943 45.1854 46.2276 46.598 42.7939 46.6848C42.4867 46.6927 42.1949 46.8212 41.9817 47.0426C41.7685 47.264 41.651 47.5604 41.6546 47.8678C41.6583 48.1751 41.7828 48.4687 42.0012 48.6849C42.2196 48.9012 42.5143 49.0228 42.8217 49.0234H42.8498C46.8803 49.0234 50.6703 47.3047 53.5217 44.4467C56.3987 41.5711 58.0387 37.6854 58.092 33.618C58.0952 33.4635 58.0679 33.31 58.0115 33.1662C57.9552 33.0224 57.871 32.8911 57.7638 32.78C57.6565 32.6688 57.5284 32.58 57.3867 32.5185C57.245 32.457 57.0925 32.4242 56.9381 32.4219Z" fill="#284268"/>
<path d="M30.6478 43.8672C30.8795 43.8672 31.106 43.7985 31.2987 43.6699C31.4913 43.5412 31.6416 43.3584 31.7304 43.1444C31.8191 42.9304 31.8425 42.6949 31.7975 42.4676C31.7525 42.2404 31.6411 42.0315 31.4775 41.8675C28.9913 39.3673 27.5958 35.9846 27.5958 32.4587C27.5958 28.9327 28.9913 25.55 31.4775 23.0498C32.708 21.8149 34.1701 20.8351 35.7801 20.1665C37.39 19.4979 39.1162 19.1538 40.8594 19.1538C42.6027 19.1538 44.3288 19.4979 45.9388 20.1665C47.5488 20.8351 49.0109 21.8149 50.2414 23.0498C50.4519 23.2607 50.6578 23.4812 50.8529 23.7047C51.0573 23.9388 51.3463 24.0822 51.6564 24.1033C51.9665 24.1243 52.2722 24.0213 52.5064 23.817C52.7406 23.6126 52.8839 23.3236 52.905 23.0135C52.9261 22.7034 52.8231 22.3976 52.6187 22.1634C52.3894 21.9007 52.1478 21.642 51.9005 21.3943C50.4524 19.9412 48.7316 18.7883 46.8369 18.0016C44.9422 17.2149 42.9109 16.8099 40.8593 16.8099C38.8078 16.8099 36.7765 17.2149 34.8818 18.0016C32.9871 18.7883 31.2663 19.9412 29.8181 21.3943C26.8945 24.3345 25.2534 28.3124 25.2534 32.4588C25.2534 36.6051 26.8945 40.583 29.8181 43.5232C29.9269 43.6324 30.0562 43.7191 30.1986 43.7781C30.341 43.8371 30.4937 43.8674 30.6478 43.8672Z" fill="#284268"/>
<path d="M50.6908 15.2344C50.5386 15.2632 50.3936 15.3219 50.2643 15.4072C50.1349 15.4924 50.0237 15.6024 49.9371 15.7309C49.8506 15.8593 49.7903 16.0037 49.7599 16.1556C49.7295 16.3074 49.7295 16.4639 49.7599 16.6157C49.7903 16.7676 49.8505 16.912 49.937 17.0405C50.0236 17.169 50.1347 17.279 50.2641 17.3642C50.3934 17.4495 50.5384 17.5082 50.6906 17.5371C50.8428 17.566 50.9992 17.5644 51.1507 17.5324C52.875 17.1873 54.1716 17.4369 55.0068 18.2746C56.9308 20.2035 55.7152 24.6189 51.7677 30.2029C50.9417 29.6777 49.9524 29.4719 48.9854 29.6241C48.0184 29.7763 47.1402 30.276 46.5154 31.0296C45.8906 31.7832 45.5622 32.7388 45.5918 33.7172C45.6214 34.6957 46.007 35.6297 46.6761 36.3441C46.3591 36.6766 46.0384 37.0056 45.714 37.3312C39.5283 43.5324 33.0316 47.5393 29.1634 47.5393C28.1131 47.5393 27.3111 47.2463 26.7119 46.6465C25.7802 45.7127 25.5775 44.2096 26.1093 42.1791C26.1881 41.8784 26.1441 41.5588 25.9872 41.2905C25.8303 41.0222 25.5732 40.8273 25.2725 40.7485C24.9719 40.6698 24.6522 40.7137 24.3839 40.8707C24.1157 41.0276 23.9207 41.2847 23.842 41.5854C23.3213 43.5738 23.1084 46.3531 25.0529 48.3018C26.0998 49.351 27.4828 49.8838 29.1638 49.8838C34.5757 49.8838 42.1189 44.2551 47.374 38.9873C47.8468 38.5131 48.3115 38.027 48.7689 37.5385C49.4782 37.6891 50.215 37.6455 50.9017 37.4125C51.5884 37.1794 52.1994 36.7654 52.6706 36.2142C53.1417 35.663 53.4554 34.9949 53.5786 34.2803C53.7019 33.5657 53.6301 32.8311 53.3709 32.1539C53.3574 32.1191 53.3412 32.0861 53.3271 32.0519C58.4203 25.0367 59.6101 19.5715 56.667 16.6201C54.8929 14.8404 52.4379 14.8844 50.6908 15.2344ZM49.6132 35.2838C49.2785 35.2858 48.9506 35.1883 48.6713 35.0037C48.392 34.8191 48.1739 34.5557 48.0445 34.247C47.9151 33.9382 47.8804 33.5979 47.9447 33.2694C48.009 32.9408 48.1695 32.6388 48.4057 32.4016C48.6419 32.1643 48.9433 32.0026 49.2716 31.937C49.5999 31.8713 49.9403 31.9046 50.2496 32.0327C50.5589 32.1608 50.8232 32.3778 51.0089 32.6563C51.1947 32.9349 51.2935 33.2623 51.2929 33.5971C51.2933 34.0433 51.1167 34.4715 50.8018 34.7877C50.487 35.1039 50.0595 35.2823 49.6132 35.2838Z" fill="#284268"/>
<path d="M30.3711 27.3224C30.1665 27.8457 29.9887 28.3791 29.8383 28.9205C29.7552 29.22 29.7945 29.5402 29.9475 29.8107C30.1005 30.0813 30.3547 30.28 30.6542 30.3631C30.9536 30.4462 31.2739 30.4069 31.5444 30.2539C31.8149 30.1009 32.0136 29.8467 32.0967 29.5473C32.2256 29.0828 32.3782 28.6253 32.554 28.1765C32.6672 27.8871 32.6609 27.5645 32.5363 27.2797C32.4117 26.995 32.1791 26.7714 31.8896 26.6581C31.6001 26.5448 31.2775 26.5512 30.9928 26.6758C30.708 26.8004 30.4844 27.033 30.3711 27.3224Z" fill="#284268"/>
<path d="M35.5188 11.6285C35.9867 11.6286 36.4441 11.4899 36.8332 11.23C37.2223 10.9701 37.5256 10.6007 37.7047 10.1684C37.8838 9.73615 37.9307 9.26048 37.8394 8.80156C37.7482 8.34264 37.5229 7.92109 37.192 7.59022C36.8612 7.25935 36.4396 7.03403 35.9807 6.94274C35.5218 6.85145 35.0461 6.8983 34.6139 7.07737C34.1816 7.25644 33.8121 7.55968 33.5522 7.94873C33.2922 8.33779 33.1535 8.7952 33.1536 9.2631C33.1543 9.89018 33.4038 10.4914 33.8472 10.9348C34.2906 11.3782 34.8917 11.6277 35.5188 11.6285Z" fill="#284268"/>
<path d="M32.3358 14.8113C33.2028 14.8113 33.9056 14.1085 33.9056 13.2416C33.9056 12.3747 33.2028 11.6719 32.3358 11.6719C31.4689 11.6719 30.7661 12.3747 30.7661 13.2416C30.7661 14.1085 31.4689 14.8113 32.3358 14.8113Z" fill="#284268"/>
</svg>
