<svg width="342" height="133" viewBox="0 0 342 133" fill="none" xmlns="http://www.w3.org/2000/svg">
<path d="M122.331 75.616C123.963 75.616 125.151 75.34 125.895 74.788C126.639 74.236 127.011 73.456 127.011 72.448C127.011 71.848 126.879 71.332 126.615 70.9C126.375 70.468 126.015 70.084 125.535 69.748C125.079 69.388 124.515 69.064 123.843 68.776C123.171 68.464 122.403 68.164 121.539 67.876C120.675 67.564 119.835 67.228 119.019 66.868C118.227 66.484 117.519 66.016 116.895 65.464C116.295 64.912 115.803 64.252 115.419 63.484C115.059 62.716 114.879 61.792 114.879 60.712C114.879 58.456 115.659 56.692 117.219 55.42C118.779 54.124 120.903 53.476 123.591 53.476C125.151 53.476 126.531 53.656 127.731 54.016C128.955 54.352 129.915 54.724 130.611 55.132L129.207 58.804C128.391 58.348 127.491 58 126.507 57.76C125.547 57.52 124.551 57.4 123.519 57.4C122.295 57.4 121.335 57.652 120.639 58.156C119.967 58.66 119.631 59.368 119.631 60.28C119.631 60.832 119.739 61.312 119.955 61.72C120.195 62.104 120.519 62.452 120.927 62.764C121.359 63.076 121.851 63.364 122.403 63.628C122.979 63.892 123.603 64.144 124.275 64.384C125.451 64.816 126.495 65.26 127.407 65.716C128.343 66.148 129.123 66.676 129.747 67.3C130.395 67.9 130.887 68.62 131.223 69.46C131.559 70.276 131.727 71.272 131.727 72.448C131.727 74.704 130.923 76.456 129.315 77.704C127.731 78.928 125.403 79.54 122.331 79.54C121.299 79.54 120.351 79.468 119.487 79.324C118.647 79.204 117.891 79.048 117.219 78.856C116.571 78.664 116.007 78.472 115.527 78.28C115.047 78.064 114.663 77.872 114.375 77.704L115.707 73.996C116.355 74.356 117.231 74.716 118.335 75.076C119.439 75.436 120.771 75.616 122.331 75.616ZM139.864 67.516C140.416 66.94 141.004 66.328 141.628 65.68C142.252 65.008 142.864 64.348 143.464 63.7C144.064 63.028 144.628 62.392 145.156 61.792C145.708 61.168 146.176 60.628 146.56 60.172H151.708C150.508 61.516 149.236 62.908 147.892 64.348C146.572 65.788 145.24 67.192 143.896 68.56C144.616 69.16 145.372 69.892 146.164 70.756C146.956 71.596 147.724 72.496 148.468 73.456C149.212 74.416 149.908 75.376 150.556 76.336C151.204 77.296 151.744 78.184 152.176 79H147.136C146.704 78.256 146.2 77.476 145.624 76.66C145.072 75.844 144.472 75.052 143.824 74.284C143.176 73.516 142.516 72.796 141.844 72.124C141.172 71.428 140.512 70.84 139.864 70.36V79H135.508V51.784L139.864 51.064V67.516ZM159.728 79H155.372V60.172H159.728V79ZM160.196 54.664C160.196 55.48 159.932 56.128 159.404 56.608C158.876 57.088 158.252 57.328 157.532 57.328C156.788 57.328 156.152 57.088 155.624 56.608C155.096 56.128 154.832 55.48 154.832 54.664C154.832 53.824 155.096 53.164 155.624 52.684C156.152 52.204 156.788 51.964 157.532 51.964C158.252 51.964 158.876 52.204 159.404 52.684C159.932 53.164 160.196 53.824 160.196 54.664ZM171.838 79.36C170.542 79.336 169.462 79.192 168.598 78.928C167.758 78.664 167.086 78.292 166.582 77.812C166.078 77.308 165.718 76.696 165.502 75.976C165.31 75.232 165.214 74.392 165.214 73.456V51.784L169.57 51.064V72.628C169.57 73.156 169.606 73.6 169.678 73.96C169.774 74.32 169.93 74.632 170.146 74.896C170.362 75.136 170.65 75.328 171.01 75.472C171.394 75.592 171.874 75.688 172.45 75.76L171.838 79.36ZM182.525 79.36C181.229 79.336 180.149 79.192 179.285 78.928C178.445 78.664 177.773 78.292 177.269 77.812C176.765 77.308 176.405 76.696 176.189 75.976C175.997 75.232 175.901 74.392 175.901 73.456V51.784L180.257 51.064V72.628C180.257 73.156 180.293 73.6 180.365 73.96C180.461 74.32 180.617 74.632 180.833 74.896C181.049 75.136 181.337 75.328 181.697 75.472C182.081 75.592 182.561 75.688 183.137 75.76L182.525 79.36ZM191.377 75.868C192.529 75.868 193.369 75.736 193.897 75.472C194.425 75.184 194.689 74.704 194.689 74.032C194.689 73.408 194.401 72.892 193.825 72.484C193.273 72.076 192.349 71.632 191.053 71.152C190.261 70.864 189.529 70.564 188.857 70.252C188.209 69.916 187.645 69.532 187.165 69.1C186.685 68.668 186.301 68.152 186.013 67.552C185.749 66.928 185.617 66.172 185.617 65.284C185.617 63.556 186.253 62.2 187.525 61.216C188.797 60.208 190.525 59.704 192.709 59.704C193.813 59.704 194.869 59.812 195.877 60.028C196.885 60.22 197.641 60.412 198.145 60.604L197.353 64.132C196.873 63.916 196.261 63.724 195.517 63.556C194.773 63.364 193.909 63.268 192.925 63.268C192.037 63.268 191.317 63.424 190.765 63.736C190.213 64.024 189.937 64.48 189.937 65.104C189.937 65.416 189.985 65.692 190.081 65.932C190.201 66.172 190.393 66.4 190.657 66.616C190.921 66.808 191.269 67.012 191.701 67.228C192.133 67.42 192.661 67.624 193.285 67.84C194.317 68.224 195.193 68.608 195.913 68.992C196.633 69.352 197.221 69.772 197.677 70.252C198.157 70.708 198.505 71.236 198.721 71.836C198.937 72.436 199.045 73.156 199.045 73.996C199.045 75.796 198.373 77.164 197.029 78.1C195.709 79.012 193.813 79.468 191.341 79.468C189.685 79.468 188.353 79.324 187.345 79.036C186.337 78.772 185.629 78.556 185.221 78.388L185.977 74.752C186.625 75.016 187.393 75.268 188.281 75.508C189.193 75.748 190.225 75.868 191.377 75.868ZM219.256 79.288C217.936 79.288 216.604 79.24 215.26 79.144C213.916 79.072 212.74 78.904 211.732 78.64V54.412C212.26 54.316 212.824 54.232 213.424 54.16C214.024 54.064 214.636 53.992 215.26 53.944C215.884 53.896 216.496 53.86 217.096 53.836C217.72 53.812 218.308 53.8 218.86 53.8C220.372 53.8 221.776 53.92 223.072 54.16C224.368 54.376 225.484 54.748 226.42 55.276C227.38 55.804 228.124 56.5 228.652 57.364C229.18 58.228 229.444 59.296 229.444 60.568C229.444 61.744 229.156 62.752 228.58 63.592C228.028 64.432 227.248 65.104 226.24 65.608C227.752 66.112 228.868 66.856 229.588 67.84C230.308 68.824 230.668 70.072 230.668 71.584C230.668 74.152 229.732 76.084 227.86 77.38C225.988 78.652 223.12 79.288 219.256 79.288ZM216.196 67.768V75.364C216.7 75.412 217.24 75.448 217.816 75.472C218.392 75.496 218.92 75.508 219.4 75.508C220.336 75.508 221.2 75.448 221.992 75.328C222.808 75.208 223.504 75.004 224.08 74.716C224.68 74.404 225.148 73.996 225.484 73.492C225.844 72.988 226.024 72.34 226.024 71.548C226.024 70.132 225.508 69.148 224.476 68.596C223.444 68.044 222.016 67.768 220.192 67.768H216.196ZM216.196 64.204H219.4C221.128 64.204 222.484 63.964 223.468 63.484C224.452 62.98 224.944 62.092 224.944 60.82C224.944 59.62 224.428 58.768 223.396 58.264C222.388 57.76 221.068 57.508 219.436 57.508C218.74 57.508 218.116 57.52 217.564 57.544C217.036 57.568 216.58 57.604 216.196 57.652V64.204ZM252.204 69.568C252.204 71.056 251.988 72.412 251.556 73.636C251.124 74.86 250.512 75.904 249.72 76.768C248.928 77.632 247.968 78.304 246.84 78.784C245.736 79.264 244.512 79.504 243.168 79.504C241.824 79.504 240.6 79.264 239.496 78.784C238.392 78.304 237.444 77.632 236.652 76.768C235.86 75.904 235.236 74.86 234.78 73.636C234.348 72.412 234.132 71.056 234.132 69.568C234.132 68.08 234.348 66.736 234.78 65.536C235.236 64.312 235.86 63.268 236.652 62.404C237.468 61.54 238.428 60.88 239.532 60.424C240.636 59.944 241.848 59.704 243.168 59.704C244.488 59.704 245.7 59.944 246.804 60.424C247.932 60.88 248.892 61.54 249.684 62.404C250.476 63.268 251.088 64.312 251.52 65.536C251.976 66.736 252.204 68.08 252.204 69.568ZM247.74 69.568C247.74 67.696 247.332 66.22 246.516 65.14C245.724 64.036 244.608 63.484 243.168 63.484C241.728 63.484 240.6 64.036 239.784 65.14C238.992 66.22 238.596 67.696 238.596 69.568C238.596 71.464 238.992 72.964 239.784 74.068C240.6 75.172 241.728 75.724 243.168 75.724C244.608 75.724 245.724 75.172 246.516 74.068C247.332 72.964 247.74 71.464 247.74 69.568ZM273.72 69.568C273.72 71.056 273.504 72.412 273.072 73.636C272.64 74.86 272.028 75.904 271.236 76.768C270.444 77.632 269.484 78.304 268.356 78.784C267.252 79.264 266.028 79.504 264.684 79.504C263.34 79.504 262.116 79.264 261.012 78.784C259.908 78.304 258.96 77.632 258.168 76.768C257.376 75.904 256.752 74.86 256.296 73.636C255.864 72.412 255.648 71.056 255.648 69.568C255.648 68.08 255.864 66.736 256.296 65.536C256.752 64.312 257.376 63.268 258.168 62.404C258.984 61.54 259.944 60.88 261.048 60.424C262.152 59.944 263.364 59.704 264.684 59.704C266.004 59.704 267.216 59.944 268.32 60.424C269.448 60.88 270.408 61.54 271.2 62.404C271.992 63.268 272.604 64.312 273.036 65.536C273.492 66.736 273.72 68.08 273.72 69.568ZM269.256 69.568C269.256 67.696 268.848 66.22 268.032 65.14C267.24 64.036 266.124 63.484 264.684 63.484C263.244 63.484 262.116 64.036 261.3 65.14C260.508 66.22 260.112 67.696 260.112 69.568C260.112 71.464 260.508 72.964 261.3 74.068C262.116 75.172 263.244 75.724 264.684 75.724C266.124 75.724 267.24 75.172 268.032 74.068C268.848 72.964 269.256 71.464 269.256 69.568ZM282.924 75.868C284.076 75.868 284.916 75.736 285.444 75.472C285.972 75.184 286.236 74.704 286.236 74.032C286.236 73.408 285.948 72.892 285.372 72.484C284.82 72.076 283.896 71.632 282.6 71.152C281.808 70.864 281.076 70.564 280.404 70.252C279.756 69.916 279.192 69.532 278.712 69.1C278.232 68.668 277.848 68.152 277.56 67.552C277.296 66.928 277.164 66.172 277.164 65.284C277.164 63.556 277.8 62.2 279.072 61.216C280.344 60.208 282.072 59.704 284.256 59.704C285.36 59.704 286.416 59.812 287.424 60.028C288.432 60.22 289.188 60.412 289.692 60.604L288.9 64.132C288.42 63.916 287.808 63.724 287.064 63.556C286.32 63.364 285.456 63.268 284.472 63.268C283.584 63.268 282.864 63.424 282.312 63.736C281.76 64.024 281.484 64.48 281.484 65.104C281.484 65.416 281.532 65.692 281.628 65.932C281.748 66.172 281.94 66.4 282.204 66.616C282.468 66.808 282.816 67.012 283.248 67.228C283.68 67.42 284.208 67.624 284.832 67.84C285.864 68.224 286.74 68.608 287.46 68.992C288.18 69.352 288.768 69.772 289.224 70.252C289.704 70.708 290.052 71.236 290.268 71.836C290.484 72.436 290.592 73.156 290.592 73.996C290.592 75.796 289.92 77.164 288.576 78.1C287.256 79.012 285.36 79.468 282.888 79.468C281.232 79.468 279.9 79.324 278.892 79.036C277.884 78.772 277.176 78.556 276.768 78.388L277.524 74.752C278.172 75.016 278.94 75.268 279.828 75.508C280.74 75.748 281.772 75.868 282.924 75.868ZM294.445 55.204L298.801 54.484V60.172H305.497V63.808H298.801V71.476C298.801 72.988 299.041 74.068 299.521 74.716C300.001 75.364 300.817 75.688 301.969 75.688C302.761 75.688 303.457 75.604 304.057 75.436C304.681 75.268 305.173 75.112 305.533 74.968L306.253 78.424C305.749 78.64 305.089 78.856 304.273 79.072C303.457 79.312 302.497 79.432 301.393 79.432C300.049 79.432 298.921 79.252 298.009 78.892C297.121 78.532 296.413 78.016 295.885 77.344C295.357 76.648 294.985 75.82 294.769 74.86C294.553 73.876 294.445 72.76 294.445 71.512V55.204ZM308.347 69.676C308.347 68.02 308.587 66.568 309.067 65.32C309.571 64.072 310.231 63.04 311.047 62.224C311.863 61.384 312.799 60.76 313.855 60.352C314.911 59.92 315.991 59.704 317.095 59.704C319.687 59.704 321.703 60.508 323.143 62.116C324.607 63.724 325.339 66.124 325.339 69.316C325.339 69.556 325.327 69.832 325.303 70.144C325.303 70.432 325.291 70.696 325.267 70.936H312.847C312.967 72.448 313.495 73.624 314.431 74.464C315.391 75.28 316.771 75.688 318.571 75.688C319.627 75.688 320.587 75.592 321.451 75.4C322.339 75.208 323.035 75.004 323.539 74.788L324.115 78.352C323.875 78.472 323.539 78.604 323.107 78.748C322.699 78.868 322.219 78.976 321.667 79.072C321.139 79.192 320.563 79.288 319.939 79.36C319.315 79.432 318.679 79.468 318.031 79.468C316.375 79.468 314.935 79.228 313.711 78.748C312.487 78.244 311.479 77.56 310.687 76.696C309.895 75.808 309.307 74.776 308.923 73.6C308.539 72.4 308.347 71.092 308.347 69.676ZM320.983 67.732C320.983 67.132 320.899 66.568 320.731 66.04C320.563 65.488 320.311 65.02 319.975 64.636C319.663 64.228 319.267 63.916 318.787 63.7C318.331 63.46 317.779 63.34 317.131 63.34C316.459 63.34 315.871 63.472 315.367 63.736C314.863 63.976 314.431 64.3 314.071 64.708C313.735 65.116 313.471 65.584 313.279 66.112C313.087 66.64 312.955 67.18 312.883 67.732H320.983ZM340.686 64.096C340.326 63.976 339.822 63.856 339.174 63.736C338.55 63.592 337.818 63.52 336.978 63.52C336.498 63.52 335.982 63.568 335.43 63.664C334.902 63.76 334.53 63.844 334.314 63.916V79H329.958V61.072C330.798 60.76 331.842 60.472 333.09 60.208C334.362 59.92 335.766 59.776 337.302 59.776C337.59 59.776 337.926 59.8 338.31 59.848C338.694 59.872 339.078 59.92 339.462 59.992C339.846 60.04 340.218 60.112 340.578 60.208C340.938 60.28 341.226 60.352 341.442 60.424L340.686 64.096Z" fill="white"/>
<path fill-rule="evenodd" clip-rule="evenodd" d="M34.2756 57.4674C33.6898 56.8816 33.6898 55.9318 34.2756 55.346L54.7817 34.8399C55.3675 34.2542 56.3172 34.2542 56.903 34.8399C57.4888 35.4257 57.4888 36.3755 56.903 36.9613L36.3969 57.4674C35.8111 58.0532 34.8614 58.0532 34.2756 57.4674Z" fill="white"/>
<path fill-rule="evenodd" clip-rule="evenodd" d="M32.9146 67.9242C32.3288 67.3384 32.3288 66.3886 32.9146 65.8028L64.0273 34.6901C64.613 34.1043 65.5628 34.1043 66.1486 34.6901C66.7344 35.2759 66.7344 36.2257 66.1486 36.8115L35.0359 67.9242C34.4501 68.5099 33.5003 68.5099 32.9146 67.9242Z" fill="white"/>
<path fill-rule="evenodd" clip-rule="evenodd" d="M34.1118 75.822C33.526 75.2362 33.526 74.2865 34.1118 73.7007L72.2956 35.517C72.8814 34.9312 73.8311 34.9312 74.4169 35.517C75.0027 36.1027 75.0027 37.0525 74.4169 37.6383L36.2331 75.822C35.6474 76.4078 34.6976 76.4078 34.1118 75.822Z" fill="white"/>
<path fill-rule="evenodd" clip-rule="evenodd" d="M36.1009 82.9284C35.5151 82.3426 35.5151 81.3929 36.1009 80.8071L79.2344 37.6736C79.8202 37.0878 80.7699 37.0878 81.3557 37.6736C81.9415 38.2594 81.9415 39.2091 81.3557 39.7949L38.2222 82.9284C37.6364 83.5142 36.6867 83.5142 36.1009 82.9284Z" fill="white"/>
<path fill-rule="evenodd" clip-rule="evenodd" d="M40.2814 87.8432C39.6956 87.2574 39.6956 86.3077 40.2814 85.7219L85.5362 40.4671C86.122 39.8813 87.0718 39.8813 87.6575 40.4671C88.2433 41.0528 88.2433 42.0026 87.6575 42.5884L42.4027 87.8432C41.8169 88.429 40.8672 88.429 40.2814 87.8432Z" fill="white"/>
<path fill-rule="evenodd" clip-rule="evenodd" d="M98.5713 75.2015C99.1571 75.7873 99.1571 76.737 98.5713 77.3228L78.0652 97.8289C77.4794 98.4147 76.5296 98.4147 75.9439 97.8289C75.3581 97.2431 75.3581 96.2934 75.9439 95.7076L96.4499 75.2015C97.0357 74.6157 97.9855 74.6157 98.5713 75.2015Z" fill="white"/>
<path fill-rule="evenodd" clip-rule="evenodd" d="M99.9322 64.7447C100.518 65.3305 100.518 66.2802 99.9322 66.866L68.8195 97.9787C68.2337 98.5645 67.284 98.5645 66.6982 97.9787C66.1124 97.3929 66.1124 96.4432 66.6982 95.8574L97.8109 64.7447C98.3967 64.1589 99.3464 64.1589 99.9322 64.7447Z" fill="white"/>
<path fill-rule="evenodd" clip-rule="evenodd" d="M98.7351 56.8468C99.3208 57.4326 99.3208 58.3823 98.7351 58.9681L60.5513 97.1519C59.9655 97.7377 59.0158 97.7377 58.43 97.1519C57.8442 96.5661 57.8442 95.6163 58.43 95.0306L96.6137 56.8468C97.1995 56.261 98.1493 56.261 98.7351 56.8468Z" fill="white"/>
<path fill-rule="evenodd" clip-rule="evenodd" d="M96.7459 49.7404C97.3317 50.3262 97.3317 51.276 96.7459 51.8617L53.6124 94.9952C53.0266 95.581 52.0768 95.581 51.4911 94.9952C50.9053 94.4095 50.9053 93.4597 51.4911 92.8739L94.6246 49.7404C95.2104 49.1546 96.1601 49.1546 96.7459 49.7404Z" fill="white"/>
<path fill-rule="evenodd" clip-rule="evenodd" d="M92.5652 44.8257C93.151 45.4115 93.151 46.3612 92.5652 46.947L47.3104 92.2018C46.7246 92.7876 45.7749 92.7876 45.1891 92.2018C44.6033 91.616 44.6033 90.6663 45.1891 90.0805L90.4439 44.8257C91.0297 44.2399 91.9795 44.2399 92.5652 44.8257Z" fill="white"/>
<path d="M65.9999 37.5773C66.6187 37.2201 67.3811 37.2201 67.9999 37.5773L91.1147 50.9226C91.7335 51.2799 92.1147 51.9401 92.1147 52.6547L92.1147 79.3453C92.1147 80.0598 91.7335 80.72 91.1147 81.0773L67.9999 94.4226C67.3811 94.7799 66.6187 94.7799 65.9999 94.4226L42.8852 81.0773C42.2664 80.72 41.8852 80.0598 41.8852 79.3453L41.8852 52.6547C41.8852 51.9401 42.2664 51.2799 42.8852 50.9226L65.9999 37.5773Z" fill="white"/>
<g filter="url(#filter0_d)">
<path d="M60.9637 71.4043C60.9637 70.5742 60.6708 69.9395 60.0848 69.5C59.4989 69.0508 58.4442 68.582 56.9208 68.0937C55.3973 67.5957 54.1913 67.1074 53.3026 66.6289C50.8807 65.3203 49.6698 63.5576 49.6698 61.3408C49.6698 60.1885 49.9921 59.1631 50.6366 58.2646C51.2909 57.3564 52.2235 56.6484 53.4344 56.1406C54.6552 55.6328 56.0223 55.3789 57.536 55.3789C59.0594 55.3789 60.4169 55.6572 61.6083 56.2139C62.7997 56.7607 63.7225 57.5371 64.3768 58.543C65.0409 59.5488 65.3729 60.6914 65.3729 61.9707L60.9784 61.9707C60.9784 60.9941 60.6708 60.2373 60.0555 59.7002C59.4403 59.1533 58.576 58.8799 57.4628 58.8799C56.3885 58.8799 55.5536 59.1094 54.9579 59.5684C54.3622 60.0176 54.0643 60.6133 54.0643 61.3555C54.0643 62.0488 54.411 62.6299 55.1044 63.0986C55.8075 63.5674 56.8378 64.0068 58.1952 64.417C60.6952 65.1689 62.5165 66.1016 63.6591 67.2148C64.8016 68.3281 65.3729 69.7148 65.3729 71.375C65.3729 73.2207 64.6747 74.6709 63.2782 75.7256C61.8817 76.7705 60.0018 77.293 57.6385 77.293C55.9979 77.293 54.5038 76.9951 53.1561 76.3994C51.8085 75.7939 50.7782 74.9687 50.0653 73.9238C49.3622 72.8789 49.0106 71.668 49.0106 70.291L53.4198 70.291C53.4198 72.6445 54.826 73.8213 57.6385 73.8213C58.6835 73.8213 59.4989 73.6113 60.0848 73.1914C60.6708 72.7617 60.9637 72.166 60.9637 71.4043Z" fill="#701678"/>
<path d="M68.3612 77L68.3612 55.6719L75.8319 55.6719C78.4198 55.6719 80.3827 56.1699 81.7206 57.166C83.0585 58.1523 83.7274 59.6025 83.7274 61.5166C83.7274 62.5615 83.4589 63.4844 82.9218 64.2852C82.3846 65.0762 81.6376 65.6572 80.6805 66.0283C81.7743 66.3018 82.6337 66.8535 83.2587 67.6836C83.8934 68.5137 84.2108 69.5293 84.2108 70.7305C84.2108 72.7812 83.5565 74.334 82.2479 75.3887C80.9393 76.4434 79.0741 76.9805 76.6522 77L68.3612 77ZM72.7557 67.7129L72.7557 73.4697L76.5204 73.4697C77.5555 73.4697 78.3612 73.2256 78.9374 72.7373C79.5233 72.2393 79.8163 71.5557 79.8163 70.6865C79.8163 68.7334 78.8055 67.7422 76.7841 67.7129L72.7557 67.7129ZM72.7557 64.6074L76.0077 64.6074C78.2245 64.5684 79.3329 63.6846 79.3329 61.9561C79.3329 60.9893 79.0497 60.2959 78.4833 59.876C77.9266 59.4463 77.0428 59.2314 75.8319 59.2314L72.7557 59.2314L72.7557 64.6074Z" fill="#701678"/>
</g>
<defs>
<filter id="filter0_d" x="49.0106" y="55.3789" width="36.2002" height="22.4141" filterUnits="userSpaceOnUse" color-interpolation-filters="sRGB">
<feFlood flood-opacity="0" result="BackgroundImageFix"/>
<feColorMatrix in="SourceAlpha" type="matrix" values="0 0 0 0 0 0 0 0 0 0 0 0 0 0 0 0 0 0 127 0"/>
<feOffset dx="1" dy="0.5"/>
<feColorMatrix type="matrix" values="0 0 0 0 0.784314 0 0 0 0 0.784314 0 0 0 0 0.784314 0 0 0 1 0"/>
<feBlend mode="normal" in2="BackgroundImageFix" result="effect1_dropShadow"/>
<feBlend mode="normal" in="SourceGraphic" in2="effect1_dropShadow" result="shape"/>
</filter>
</defs>
</svg>
