<svg width="98" height="99" viewBox="0 0 98 99" fill="none" xmlns="http://www.w3.org/2000/svg">
<path d="M96.1133 8.36713C96.1406 8.97064 96.1563 9.57025 96.1563 10.166C96.1573 12.4588 95.9488 14.747 95.5332 17.0019L95.4922 16.9941C92.1079 15.5689 89.3103 13.033 87.5605 9.80463L87.541 9.76752C90.3348 8.9716 93.2114 8.50168 96.1133 8.36713Z" fill="#5F6A78"/>
<path d="M71.9063 45.4296C71.2012 45.7011 70.4857 45.9511 69.7598 46.1796L66.7617 43.4511L64.1289 41.0527L60.8633 38.082C61.0156 37.3906 61.1882 36.7063 61.3809 36.0292C62.5119 32.0033 64.3046 28.1935 66.6855 24.7558C71.7011 17.5043 79.0689 12.2093 87.541 9.76752L87.5605 9.80463C89.3103 13.033 92.1079 15.5689 95.4922 16.9941L95.5332 17.0019C93.9267 25.6885 89.3285 33.5381 82.5371 39.1874C79.3611 41.8389 75.7692 43.948 71.9063 45.4296Z" fill="#E5F5FD"/>
<path d="M92.584 82.5722C93.0947 83.085 93.718 83.4715 94.4043 83.7011C93.7178 83.9325 93.0943 84.3199 92.5829 84.833C92.0715 85.3461 91.6861 85.9709 91.457 86.6581C91.2292 85.9702 90.8442 85.3448 90.3326 84.8316C89.821 84.3183 89.1969 83.9313 88.5098 83.7011C89.1968 83.4714 89.8209 83.0847 90.3325 82.5717C90.8441 82.0588 91.2291 81.4337 91.457 80.746C91.6853 81.4342 92.0712 82.0596 92.584 82.5722Z" fill="#3090FC"/>
<path d="M83.6718 51.0117L76.7596 58.7148L72.3475 54.6464C71.0775 53.4764 70.3191 51.8534 70.2365 50.1286C70.1539 48.4037 70.7537 46.7157 71.9061 45.4296C75.7691 43.948 79.3609 41.8389 82.537 39.1874L82.5429 39.1933C82.0281 40.0723 81.8311 41.1015 81.9847 42.1084C82.1383 43.1154 82.6332 44.039 83.3866 44.7245C84.2574 45.5179 84.7776 46.6245 84.8329 47.8012C84.8882 48.9779 84.4741 50.1284 83.6815 50.9999L83.6718 51.0117Z" fill="#5F6A78"/>
<path d="M76.7598 58.7148L83.6719 51.0117C82.3867 70.6856 65.9316 86.2481 45.8203 86.2481C40.8674 86.2548 35.961 85.2934 31.377 83.418V83.416C51.5488 72.3438 62.0176 55.8223 65.3164 49.9551L65.4004 49.8633L65.4766 49.9336L66.7617 43.4512L69.7598 46.1797C70.4844 45.9512 71.1999 45.7012 71.9062 45.4297C70.7538 46.7157 70.154 48.4038 70.2366 50.1286C70.3193 51.8535 71.0776 53.4765 72.3477 54.6465L76.7598 58.7148Z" fill="#49BDFF"/>
<path d="M70.6016 19.9726C69.1695 21.4589 67.8599 23.0585 66.6856 24.7558C65.8586 25.3502 64.8527 25.6428 63.8359 25.5845C62.8192 25.5262 61.8533 25.1206 61.0997 24.4355C60.2283 23.6421 59.0775 23.2272 57.9003 23.2822C56.7231 23.3371 55.616 23.8573 54.8223 24.7285L47.7911 32.3418L52.254 36.3554C53.5212 37.4939 55.1808 38.0962 56.8833 38.0353C58.5858 37.9745 60.1982 37.2553 61.3809 36.0293C61.1876 36.707 61.015 37.3913 60.8633 38.082L64.129 41.0527L57.5977 42.7597L57.6661 42.8222C55.877 45.25 51.502 51.0527 46.0372 57.3691L45.0313 56.1933C44.877 56.0136 44.7305 55.8261 44.5918 55.6328L42.6172 52.8965C41.5254 51.3828 39.7794 50.3789 37.9044 50.4277C37.7161 50.4338 37.5301 50.385 37.3692 50.2871L33.334 47.8808C32.7529 47.5362 32.093 47.3466 31.4176 47.3302C30.7421 47.3138 30.0738 47.4711 29.4766 47.7871L27.3497 48.9199C26.4196 49.4157 25.3369 49.5428 24.3172 49.2761C23.2976 49.0093 22.4158 48.3682 21.8477 47.4804L19.7813 44.2383C19.3139 43.5044 19.072 42.6495 19.0855 41.7796C19.099 40.9096 19.3674 40.0627 19.8575 39.3437C20.3844 38.5671 21.1166 37.9521 21.9726 37.5672C22.8285 37.1823 23.7745 37.0428 24.7051 37.164L27.8028 37.5566C28.3426 37.6307 28.8923 37.5452 29.3841 37.3106C29.8759 37.076 30.2883 36.7025 30.5704 36.2363C31.0569 35.4074 31.7763 34.7397 32.6393 34.3164C33.5022 33.8931 34.4706 33.7328 35.4239 33.8554L36.7774 34.0273C37.2521 34.0864 37.734 34.0216 38.1762 33.8391C38.6184 33.6567 39.0059 33.3629 39.3008 32.9863L40.4942 31.4453C41.0202 30.7712 41.3159 29.946 41.3377 29.0912C41.3595 28.2365 41.1063 27.3973 40.6153 26.6972L38.0411 23.0078C37.0523 21.5902 35.7658 20.4057 34.2715 19.5371C33.8792 19.3083 33.5004 19.0573 33.1368 18.7851L30.9669 17.166L28.2188 15.1093C34.9634 11.603 42.602 10.1925 50.154 11.0591C57.706 11.9257 64.8266 15.0297 70.6016 19.9726Z" fill="#49BDFF"/>
<path d="M57.666 42.8222L57.5977 42.7597L64.1289 41.0527L66.7617 43.4511L65.4766 49.9335L65.4004 49.8632L57.666 42.8222Z" fill="#4A5160"/>
<path d="M65.4005 49.8632L65.3165 49.955C62.0177 55.8222 51.5489 72.3437 31.377 83.416C27.8798 85.3355 24.2502 87.0031 20.5157 88.4062C20.5157 88.4062 -14.123 98.957 10.961 63.5214C-2.36321 89.3749 22.0313 78.541 22.5274 78.3027L22.5294 78.3007C25.752 76.7206 29.2384 74.1445 32.7286 71.0703C37.3595 66.9941 41.9962 62.041 46.0372 57.3691C51.502 51.0527 55.877 45.2499 57.6661 42.8222L65.4005 49.8632Z" fill="#FADF4A"/>
<path d="M61.0996 24.4355C61.8532 25.1206 62.8191 25.5262 63.8359 25.5845C64.8526 25.6428 65.8586 25.3503 66.6855 24.7559C64.3046 28.1936 62.5119 32.0034 61.3809 36.0293C60.1981 37.2553 58.5857 37.9745 56.8832 38.0354C55.1808 38.0962 53.5212 37.494 52.2539 36.3555L47.791 32.3418L54.8223 24.7285C55.6159 23.8574 56.7231 23.3371 57.9003 23.2822C59.0775 23.2272 60.2283 23.6421 61.0996 24.4355Z" fill="#5F6A78"/>
<path d="M45.0313 56.1934L46.0371 57.3691C41.9961 62.041 37.3594 66.9941 32.7285 71.0703L32.5996 70.9258C32.4079 70.2823 32.1001 69.6792 31.6914 69.1465L27.3105 63.4356C26.9165 62.9216 26.6248 62.3368 26.4512 61.7129L25.0059 56.5273C24.7484 55.6192 24.2607 54.793 23.59 54.1288C22.9193 53.4646 22.0883 52.9849 21.1777 52.7363L20.8633 52.6523C20.2256 52.4783 19.6398 52.1518 19.1563 51.7012L16.459 49.1777C16.0324 48.7777 15.6654 48.3186 15.3691 47.8145C14.7389 46.7386 13.7899 45.8852 12.6534 45.3722C11.5169 44.8593 10.2491 44.7121 9.02539 44.9512L8.50781 45.0527L8.05273 45.0098C9.26172 31.998 17.1211 20.9004 28.2188 15.1094L30.9668 17.166L33.1367 18.7852C33.5003 19.0573 33.8792 19.3083 34.2715 19.5371C35.7658 20.4057 37.0522 21.5902 38.041 23.0078L40.6152 26.6973C41.1062 27.3973 41.3595 28.2365 41.3377 29.0913C41.3159 29.946 41.0202 30.7712 40.4941 31.4453L39.3008 32.9863C39.0058 33.3629 38.6184 33.6567 38.1762 33.8392C37.734 34.0216 37.252 34.0864 36.7773 34.0273L35.4238 33.8555C34.4705 33.7328 33.5022 33.8931 32.6392 34.3164C31.7763 34.7397 31.0568 35.4074 30.5703 36.2363C30.2883 36.7025 29.8759 37.076 29.3841 37.3106C28.8923 37.5452 28.3426 37.6308 27.8027 37.5566L24.7051 37.1641C23.7745 37.0428 22.8284 37.1824 21.9725 37.5672C21.1166 37.9521 20.3843 38.5671 19.8574 39.3438C19.3674 40.0627 19.099 40.9096 19.0854 41.7796C19.0719 42.6496 19.3138 43.5044 19.7813 44.2383L21.8477 47.4805C22.4158 48.3682 23.2975 49.0093 24.3172 49.2761C25.3368 49.5429 26.4195 49.4157 27.3496 48.9199L29.4766 47.7871C30.0738 47.4711 30.7421 47.3138 31.4175 47.3302C32.093 47.3467 32.7528 47.5363 33.334 47.8809L37.3691 50.2871C37.5301 50.385 37.716 50.4339 37.9043 50.4277C39.7793 50.3789 41.5254 51.3828 42.6172 52.8965L44.5918 55.6328C44.7305 55.8262 44.877 56.0137 45.0313 56.1934Z" fill="#9BE147"/>
<path d="M43.2676 92.7891C43.7776 93.3031 44.4011 93.6904 45.0879 93.9199C44.4013 94.1505 43.7776 94.5374 43.2661 95.0503C42.7547 95.5631 42.3694 96.1878 42.1406 96.875C41.913 96.1872 41.5281 95.5619 41.0164 95.0489C40.5048 94.5359 39.8806 94.1494 39.1934 93.9199C39.8803 93.6894 40.5042 93.3022 41.0157 92.789C41.5272 92.2758 41.9123 91.6506 42.1406 90.9629C42.3694 91.6509 42.7552 92.2761 43.2676 92.7891Z" fill="#3090FC"/>
<path d="M33.6387 2.99799C34.1504 3.51042 34.7742 3.89689 35.4609 4.12689C34.774 4.35744 34.1501 4.74463 33.6386 5.25784C33.1271 5.77105 32.7419 6.39622 32.5137 7.08392C32.2855 6.39617 31.9004 5.77095 31.3889 5.25773C30.8773 4.7445 30.2534 4.35735 29.5664 4.12689C30.2535 3.89715 30.8775 3.51047 31.3891 2.99752C31.9007 2.48458 32.2857 1.85948 32.5137 1.17181C32.742 1.85953 33.1272 2.48472 33.6387 2.99799Z" fill="#3090FC"/>
<path d="M32.5996 70.9257L32.7285 71.0703C29.2383 74.1445 25.752 76.7207 22.5293 78.3007L22.5274 78.3027C17.5038 74.4153 13.5384 69.3269 10.9961 63.5058C8.93976 58.781 7.88184 53.6822 7.88871 48.5292C7.88871 47.3417 7.94339 46.1686 8.05277 45.0097L8.50785 45.0527L9.02542 44.9511C10.2492 44.7121 11.517 44.8592 12.6534 45.3722C13.7899 45.8851 14.7389 46.7385 15.3692 47.8144C15.6654 48.3186 16.0324 48.7777 16.459 49.1777L19.1563 51.7011C19.6398 52.1518 20.2257 52.4782 20.8633 52.6523L21.1778 52.7363C22.0884 52.9849 22.9193 53.4645 23.59 54.1287C24.2607 54.7929 24.7484 55.6192 25.0059 56.5273L26.4512 61.7128C26.6248 62.3367 26.9166 62.9215 27.3106 63.4355L31.6914 69.1464C32.1002 69.6792 32.408 70.2822 32.5996 70.9257Z" fill="#49BDFF"/>
<path d="M82.625 23.1836C83.313 23.8099 83.7997 24.6262 84.0238 25.5292C84.2479 26.4321 84.1992 27.3813 83.8838 28.2566C83.5685 29.1319 83.0007 29.894 82.2522 30.4466C81.5038 30.9992 80.6082 31.3175 79.6789 31.3612C78.7496 31.4049 77.8281 31.1721 77.0311 30.6921C76.2341 30.2122 75.5973 29.5067 75.2012 28.6648C74.8052 27.823 74.6676 26.8826 74.806 25.9626C74.9443 25.0425 75.3524 24.1842 75.9785 23.4961C76.8186 22.5734 77.9906 22.0222 79.2371 21.9636C80.4835 21.905 81.7021 22.3438 82.625 23.1836Z" fill="#5F6A78"/>
<path d="M61.8906 49.5C61.9033 49.7492 61.881 49.9991 61.8242 50.2421C61.7029 50.7617 61.431 51.234 61.0426 51.5998C60.6542 51.9656 60.1666 52.2088 59.6406 52.2988L56.2129 52.8886L56.4785 49.4199C56.5305 48.7312 56.8434 48.0883 57.3533 47.6224C57.8632 47.1566 58.5317 46.9029 59.2223 46.9131C59.9129 46.9233 60.5735 47.1967 61.0694 47.6774C61.5653 48.1582 61.859 48.81 61.8906 49.5Z" fill="#ED6337"/>
<path d="M45.8203 10.8105C39.692 10.8002 33.6524 12.2753 28.2188 15.1094L30.9668 17.166L33.1367 18.7852L33.6875 19.0156C39.4145 16.0399 45.8027 14.5651 52.2546 14.7293C58.7065 14.8934 65.0114 16.6911 70.5797 19.9543C63.6883 14.039 54.9023 10.7943 45.8203 10.8105Z" fill="#3090FC"/>
<path d="M33.5609 19.0842C33.418 18.9865 33.2752 18.8889 33.1367 18.7852L30.9668 17.166L28.2187 15.1094C17.1211 20.9004 9.26172 31.998 8.05273 45.0098L8.50781 45.0527L9.02539 44.9512C9.87315 44.7855 10.7467 44.8046 11.5864 45.0072C12.4261 45.2099 13.2121 45.5913 13.891 46.1254C15.8801 34.377 23.3316 24.4717 33.5609 19.0842Z" fill="#50DD5A"/>
<path d="M17.0508 64.873C14.9944 60.1481 13.9365 55.0494 13.9434 49.8964C13.9434 48.7089 13.9981 47.5358 14.1075 46.3769L14.2034 46.3859C13.5108 45.7614 12.6823 45.3067 11.7836 45.0577C10.885 44.8086 9.94065 44.7722 9.02542 44.9511L8.50785 45.0527L8.05277 45.0097C7.94339 46.1686 7.88871 47.3417 7.88871 48.5292C7.88184 53.6822 8.93976 58.781 10.9961 63.5058C13.5384 69.3269 17.5038 74.4153 22.5274 78.3027L22.5293 78.3007C23.4652 77.8367 24.3767 77.3253 25.2604 76.7683C21.7838 73.3685 18.9962 69.3295 17.0508 64.873Z" fill="#3090FC"/>
<path d="M18.113 15.6134C18.3806 15.6137 18.6402 15.522 18.8482 15.3537C19.587 14.7576 20.3538 14.1798 21.1273 13.6363C21.2532 13.5478 21.3604 13.4354 21.4429 13.3054C21.5254 13.1755 21.5814 13.0306 21.6079 12.879C21.6343 12.7274 21.6307 12.5721 21.5971 12.4219C21.5635 12.2717 21.5007 12.1296 21.4122 12.0037C21.3237 11.8778 21.2113 11.7705 21.0814 11.6881C20.9515 11.6056 20.8065 11.5495 20.6549 11.5231C20.5033 11.4966 20.348 11.5003 20.1978 11.5338C20.0476 11.5674 19.9055 11.6302 19.7796 11.7187C18.964 12.2918 18.1554 12.9011 17.3773 13.5295C17.1885 13.6817 17.0517 13.8888 16.9856 14.1221C16.9194 14.3554 16.9273 14.6034 17.0081 14.8321C17.0889 15.0607 17.2387 15.2586 17.4367 15.3986C17.6347 15.5385 17.8713 15.6136 18.1138 15.6134H18.113Z" fill="#284268"/>
<path d="M4.16232 34.1015C4.30615 34.1563 4.45937 34.1822 4.61322 34.1778C4.76708 34.1733 4.91854 34.1385 5.05894 34.0755C5.19935 34.0124 5.32595 33.9223 5.43149 33.8103C5.53704 33.6983 5.61946 33.5665 5.67404 33.4226C7.82852 27.7615 11.1731 22.6288 15.4819 18.3714C15.5933 18.2635 15.6823 18.1344 15.7435 17.9918C15.8047 17.8492 15.837 17.6958 15.8384 17.5406C15.8399 17.3854 15.8105 17.2315 15.752 17.0877C15.6935 16.944 15.607 16.8133 15.4976 16.7033C15.3881 16.5932 15.2579 16.506 15.1145 16.4467C14.9711 16.3874 14.8173 16.3571 14.6621 16.3577C14.5069 16.3583 14.3533 16.3898 14.2104 16.4502C14.0674 16.5106 13.9379 16.5988 13.8293 16.7097C9.28384 21.2018 5.75566 26.6174 3.48322 32.5904C3.373 32.8808 3.38262 33.2032 3.50996 33.4865C3.6373 33.7699 3.87195 33.9911 4.16232 34.1015Z" fill="#284268"/>
<path d="M84.3549 69.8738C84.2228 69.7948 84.0765 69.7425 83.9242 69.7201C83.7719 69.6976 83.6168 69.7054 83.4675 69.7429C83.3182 69.7804 83.1778 69.847 83.0543 69.9388C82.9307 70.0306 82.8265 70.1458 82.7475 70.2779C82.0912 71.3752 81.3744 72.458 80.6172 73.4966C80.5243 73.6208 80.4569 73.7622 80.419 73.9126C80.3811 74.0631 80.3735 74.2195 80.3965 74.3729C80.4196 74.5263 80.4729 74.6736 80.5533 74.8062C80.6337 74.9389 80.7396 75.0542 80.8649 75.1456C80.9903 75.237 81.1325 75.3026 81.2834 75.3386C81.4343 75.3747 81.5908 75.3804 81.7439 75.3554C81.897 75.3305 82.0436 75.2754 82.1752 75.1933C82.3069 75.1113 82.4209 75.0039 82.5108 74.8775C83.3098 73.7818 84.0662 72.639 84.759 71.481C84.9185 71.2143 84.9656 70.8951 84.8898 70.5937C84.814 70.2923 84.6216 70.0333 84.3549 69.8738Z" fill="#284268"/>
<path d="M89.2702 61.1543C89.9364 58.8721 90.4197 56.5405 90.7155 54.1816C90.9495 52.307 91.0669 50.4198 91.0671 48.5306C91.0671 48.2198 90.9436 47.9218 90.7238 47.702C90.5041 47.4822 90.206 47.3588 89.8952 47.3588C89.5844 47.3588 89.2863 47.4822 89.0665 47.702C88.8468 47.9218 88.7233 48.2198 88.7233 48.5306C88.7236 50.3224 88.6127 52.1124 88.3913 53.8904C88.1111 56.1257 87.6534 58.335 87.0225 60.4976C86.6399 61.8062 86.1883 63.1113 85.6801 64.3752C85.3676 65.1517 85.0288 65.9271 84.6721 66.6799C84.5391 66.9608 84.5231 67.283 84.6276 67.5757C84.7322 67.8685 84.9487 68.1076 85.2296 68.2407C85.5106 68.3737 85.8328 68.3898 86.1255 68.2852C86.4182 68.1806 86.6574 67.9641 86.7905 67.6832C87.167 66.8879 87.5251 66.0689 87.8549 65.249C88.3895 63.914 88.8663 62.5365 89.2702 61.1543Z" fill="#284268"/>
<path d="M24.8672 11.4443C25.6142 11.4443 26.2197 10.8393 26.2197 10.0929C26.2197 9.3466 25.6142 8.74158 24.8672 8.74158C24.1202 8.74158 23.5146 9.3466 23.5146 10.0929C23.5146 10.8393 24.1202 11.4443 24.8672 11.4443Z" fill="#284268"/>
<path d="M78.3337 76.4551C78.0665 76.4553 77.8053 76.5347 77.5831 76.6833C77.361 76.832 77.1879 77.0431 77.0858 77.2901C76.9836 77.5371 76.957 77.8088 77.0092 78.0709C77.0615 78.333 77.1903 78.5738 77.3794 78.7627C77.5684 78.9516 77.8093 79.0802 78.0714 79.1323C78.3336 79.1844 78.6053 79.1575 78.8522 79.0552C79.0991 78.9529 79.3101 78.7797 79.4586 78.5574C79.607 78.3352 79.6863 78.0739 79.6863 77.8066C79.6858 77.4482 79.5431 77.1045 79.2895 76.8512C79.0359 76.5978 78.6922 76.4553 78.3337 76.4551Z" fill="#284268"/>
<path d="M66.2902 92.7473C65.9807 92.7473 65.6781 92.839 65.4208 93.011C65.1634 93.1829 64.9629 93.4274 64.8444 93.7133C64.726 93.9993 64.695 94.3139 64.7554 94.6175C64.8158 94.921 64.9649 95.1998 65.1837 95.4187C65.4026 95.6375 65.6815 95.7865 65.985 95.8469C66.2886 95.9073 66.6032 95.8762 66.8892 95.7578C67.1751 95.6393 67.4195 95.4387 67.5914 95.1813C67.7633 94.924 67.8551 94.6214 67.855 94.3119C67.8545 93.8971 67.6895 93.4994 67.3961 93.206C67.1028 92.9127 66.705 92.7477 66.2902 92.7473Z" fill="#284268"/>
<path d="M68.6482 91.3578C69.838 91.3578 70.8025 90.3933 70.8025 89.2035C70.8025 88.0137 69.838 87.0492 68.6482 87.0492C67.4584 87.0492 66.4939 88.0137 66.4939 89.2035C66.4939 90.3933 67.4584 91.3578 68.6482 91.3578Z" fill="#284268"/>
<path d="M6.95327 9.81872C7.26277 9.81872 7.56532 9.72694 7.82265 9.55499C8.07999 9.38304 8.28056 9.13865 8.399 8.85271C8.51744 8.56677 8.54843 8.25214 8.48805 7.94859C8.42767 7.64504 8.27863 7.36621 8.05978 7.14736C7.84094 6.92851 7.56211 6.77947 7.25856 6.71909C6.95501 6.65871 6.64037 6.6897 6.35443 6.80814C6.06849 6.92658 5.8241 7.12715 5.65215 7.38449C5.4802 7.64183 5.38843 7.94437 5.38843 8.25387C5.38889 8.66875 5.55391 9.0665 5.84727 9.35987C6.14064 9.65323 6.53839 9.81825 6.95327 9.81872Z" fill="#284268"/>
<path d="M9.31103 5.29956C9.73708 5.29956 10.1536 5.17323 10.5078 4.93655C10.8621 4.69987 11.1382 4.36346 11.3013 3.96986C11.4643 3.57626 11.5071 3.14314 11.424 2.72527C11.3409 2.3074 11.1358 1.92354 10.8346 1.62222C10.5334 1.32091 10.1496 1.11567 9.7318 1.03246C9.31395 0.949245 8.88082 0.991796 8.48716 1.15473C8.0935 1.31766 7.75699 1.59366 7.52018 1.94783C7.28337 2.302 7.15689 2.71844 7.15674 3.14448C7.1571 3.7158 7.38416 4.26362 7.78807 4.66768C8.19198 5.07173 8.73972 5.29899 9.31103 5.29956Z" fill="#284268"/>
<path d="M29.1954 5.23923C29.7093 5.41277 30.1759 5.70299 30.5589 6.08712C30.9418 6.47126 31.2305 6.93887 31.4024 7.45329C31.4801 7.68682 31.6293 7.88998 31.8289 8.03395C32.0285 8.17792 32.2683 8.2554 32.5144 8.2554C32.7605 8.2554 33.0004 8.17792 33.2 8.03395C33.3996 7.88998 33.5488 7.68682 33.6264 7.45329C33.7984 6.93888 34.0871 6.47128 34.47 6.08715C34.8529 5.70302 35.3196 5.4128 35.8335 5.23923C36.0666 5.1613 36.2693 5.01206 36.4129 4.81261C36.5565 4.61315 36.6338 4.37359 36.6338 4.1278C36.6338 3.88201 36.5565 3.64245 36.4129 3.44299C36.2693 3.24354 36.0666 3.0943 35.8335 3.01637C35.3196 2.84274 34.8529 2.55247 34.47 2.16831C34.0871 1.78415 33.7984 1.31654 33.6264 0.802117C33.5488 0.568585 33.3996 0.365427 33.2 0.221454C33.0004 0.0774805 32.7605 0 32.5144 0C32.2683 0 32.0285 0.0774805 31.8289 0.221454C31.6293 0.365427 31.4801 0.568585 31.4024 0.802117C31.2305 1.31656 30.9418 1.7842 30.5589 2.16836C30.1759 2.55253 29.7093 2.84278 29.1954 3.01637C28.9623 3.0943 28.7596 3.24354 28.6159 3.44299C28.4723 3.64245 28.395 3.88201 28.395 4.1278C28.395 4.37359 28.4723 4.61315 28.6159 4.81261C28.7596 5.01206 28.9623 5.1613 29.1954 5.23923ZM32.5141 3.50094C32.7065 3.72498 32.9155 3.93429 33.1391 4.12712C32.9155 4.31994 32.7065 4.52925 32.5141 4.75329C32.3216 4.52934 32.1127 4.32004 31.8891 4.12712C32.1126 3.93437 32.3213 3.72526 32.5137 3.50153L32.5141 3.50094Z" fill="#284268"/>
<path d="M45.4599 92.8076C44.9461 92.634 44.4794 92.3438 44.0965 91.9597C43.7136 91.5756 43.4248 91.108 43.2529 90.5936C43.1752 90.36 43.026 90.1569 42.8264 90.0129C42.6268 89.8689 42.387 89.7914 42.1409 89.7914C41.8948 89.7914 41.6549 89.8689 41.4553 90.0129C41.2557 90.1569 41.1065 90.36 41.0289 90.5936C40.857 91.108 40.5682 91.5756 40.1853 91.9597C39.8024 92.3439 39.3357 92.6341 38.8218 92.8076C38.5887 92.8855 38.386 93.0348 38.2424 93.2342C38.0988 93.4337 38.0215 93.6733 38.0215 93.919C38.0215 94.1648 38.0988 94.4044 38.2424 94.6039C38.386 94.8033 38.5887 94.9525 38.8218 95.0305C39.3357 95.2041 39.8024 95.4943 40.1853 95.8785C40.5682 96.2626 40.857 96.7303 41.0289 97.2447C41.1065 97.4783 41.2557 97.6814 41.4553 97.8254C41.6549 97.9694 41.8948 98.0468 42.1409 98.0468C42.387 98.0468 42.6268 97.9694 42.8264 97.8254C43.026 97.6814 43.1752 97.4783 43.2529 97.2447C43.4248 96.7303 43.7136 96.2627 44.0965 95.8785C44.4794 95.4943 44.9461 95.2041 45.4599 95.0305C45.693 94.9525 45.8957 94.8033 46.0394 94.6039C46.183 94.4044 46.2603 94.1648 46.2603 93.919C46.2603 93.6733 46.183 93.4337 46.0394 93.2342C45.8957 93.0348 45.693 92.8855 45.4599 92.8076ZM42.1412 94.5459C41.9487 94.3219 41.7398 94.1126 41.5162 93.9197C41.7398 93.7268 41.9487 93.5175 42.1412 93.2936C42.3336 93.5176 42.5425 93.7269 42.7662 93.9197C42.5425 94.1123 42.3336 94.3214 42.1412 94.5453V94.5459Z" fill="#284268"/>
<path d="M94.7763 82.5906C94.2625 82.417 93.7958 82.1268 93.4129 81.7427C93.03 81.3585 92.7412 80.8909 92.5693 80.3765C92.4917 80.143 92.3425 79.9398 92.1429 79.7959C91.9433 79.6519 91.7034 79.5744 91.4573 79.5744C91.2112 79.5744 90.9713 79.6519 90.7717 79.7959C90.5721 79.9398 90.4229 80.143 90.3453 80.3765C90.1734 80.8909 89.8846 81.3586 89.5017 81.7427C89.1188 82.1268 88.6521 82.417 88.1383 82.5906C87.9051 82.6685 87.7024 82.8177 87.5588 83.0172C87.4152 83.2167 87.3379 83.4562 87.3379 83.702C87.3379 83.9478 87.4152 84.1874 87.5588 84.3868C87.7024 84.5863 87.9051 84.7355 88.1383 84.8134C88.6521 84.987 89.1188 85.2773 89.5017 85.6615C89.8846 86.0456 90.1734 86.5133 90.3453 87.0277C90.4229 87.2612 90.5721 87.4644 90.7717 87.6084C90.9713 87.7523 91.2112 87.8298 91.4573 87.8298C91.7034 87.8298 91.9433 87.7523 92.1429 87.6084C92.3425 87.4644 92.4917 87.2612 92.5693 87.0277C92.7413 86.5133 93.03 86.0457 93.4129 85.6615C93.7958 85.2773 94.2625 84.9871 94.7763 84.8134C95.0094 84.7355 95.2122 84.5863 95.3558 84.3868C95.4994 84.1874 95.5767 83.9478 95.5767 83.702C95.5767 83.4562 95.4994 83.2167 95.3558 83.0172C95.2122 82.8177 95.0094 82.6685 94.7763 82.5906ZM91.4576 84.3289C91.2651 84.1049 91.0562 83.8956 90.8326 83.7027C91.0562 83.5098 91.2651 83.3005 91.4576 83.0765C91.6499 83.3006 91.8589 83.5099 92.0826 83.7027C91.8589 83.8953 91.65 84.1044 91.4576 84.3283V84.3289Z" fill="#284268"/>
<path d="M96.058 7.19667C87.3897 7.58316 79.1033 10.8743 72.532 16.5406C71.8406 17.1324 71.1723 17.7476 70.5271 18.3861C63.5377 12.7243 54.815 9.63634 45.8201 9.63945C24.2576 9.63945 6.71582 27.0857 6.71582 48.5299C6.70918 53.6165 7.7047 58.6546 9.64551 63.3564C1.30605 75.2611 -1.19531 83.2123 2.00664 87.6482C3.8998 90.2709 7.47851 91.0371 11.0148 91.0371C15.8068 91.0371 20.5209 89.6309 20.8586 89.5273C20.8824 89.5201 20.9061 89.5121 20.9293 89.5033C24.544 88.1455 28.0626 86.5444 31.4609 84.7109C38.3626 87.415 45.8881 88.1127 53.1692 86.7234C60.4503 85.3342 67.1902 81.9146 72.6113 76.8594C79.7272 70.234 84.0839 61.1695 84.8121 51.474C85.6859 50.358 86.1059 48.9531 85.988 47.5407C85.87 46.1282 85.2228 44.8124 84.176 43.8568C83.647 43.3718 83.2915 42.7267 83.1639 42.0205C83.0363 41.3142 83.1436 40.5856 83.4693 39.9461C88.0445 36.0864 91.6701 31.2257 94.0656 25.7402C96.461 20.2547 97.562 14.2915 97.2834 8.3123C97.2766 8.15846 97.2394 8.00749 97.174 7.86806C97.1087 7.72863 97.0164 7.60349 96.9025 7.49982C96.7887 7.39615 96.6555 7.31601 96.5105 7.26398C96.3656 7.21196 96.2118 7.18908 96.058 7.19667ZM45.8205 11.9832C54.2113 11.9804 62.3524 14.8384 68.9002 20.0855C67.8149 21.2902 66.8043 22.5601 65.8742 23.8883C65.2673 24.2812 64.5476 24.4628 63.8269 24.4049C63.1062 24.347 62.4248 24.0529 61.8883 23.5682C60.7882 22.5666 59.3355 22.0425 57.8493 22.1111C56.3631 22.1797 54.9649 22.8353 53.9617 23.934L46.9297 31.5461C46.8244 31.6602 46.7429 31.794 46.6897 31.9399C46.6366 32.0857 46.613 32.2407 46.6203 32.3957C46.6276 32.5508 46.6656 32.7028 46.7321 32.8431C46.7986 32.9833 46.8923 33.109 47.0078 33.2127L51.4707 37.2266C52.8906 38.5034 54.7338 39.2081 56.6434 39.2043C57.7261 39.2043 58.797 38.9789 59.7879 38.5426C59.8532 38.6968 59.9509 38.8352 60.0744 38.9484L61.7414 40.466L57.3008 41.6266C57.0966 41.6799 56.9107 41.7874 56.7626 41.9376C56.6144 42.0879 56.5096 42.2754 56.4592 42.4803V42.4844C54.6516 44.9244 50.8166 49.9779 46.0406 55.5693L45.9234 55.4326C45.7904 55.2764 45.6621 55.1137 45.5428 54.948L43.5684 52.2117C42.2262 50.351 40.1682 49.2543 38.0359 49.2543C37.9994 49.2543 37.9625 49.2543 37.9258 49.2543L33.9336 46.8736C33.179 46.4267 32.3223 46.1809 31.4455 46.1597C30.5687 46.1385 29.7011 46.3427 28.9258 46.7527L26.7994 47.8855C26.1291 48.2402 25.3501 48.3307 24.6163 48.1391C23.8825 47.9474 23.2472 47.4876 22.8359 46.8504L20.7705 43.6082C20.4259 43.0679 20.2475 42.4384 20.2575 41.7976C20.2675 41.1569 20.4654 40.5332 20.8268 40.0039C21.2327 39.4064 21.7965 38.9333 22.4554 38.6374C23.1144 38.3415 23.8425 38.2344 24.5588 38.3279L27.6568 38.7185C28.4244 38.8231 29.2058 38.6998 29.9038 38.3637C30.6018 38.0277 31.1856 37.4939 31.5826 36.8287C31.9525 36.1977 32.5 35.6894 33.1568 35.3674C33.8135 35.0454 34.5506 34.9238 35.276 35.0178L36.6309 35.1898C37.3076 35.2745 37.9947 35.1821 38.625 34.9215C39.2553 34.661 39.8071 34.2413 40.2266 33.7035L41.4203 32.1635C42.1006 31.2924 42.483 30.2258 42.5112 29.1209C42.5393 28.016 42.2117 26.9313 41.5766 26.0268L39.0031 22.3365C37.9147 20.7811 36.502 19.4802 34.8625 18.5232C34.5086 18.3171 34.1667 18.0911 33.8385 17.8463L30.4697 15.3267C35.2855 13.1179 40.5223 11.9773 45.8205 11.9832ZM64.0455 26.7529C62.4646 29.4778 61.2197 32.3842 60.3379 35.4086C59.3497 36.3294 58.053 36.8476 56.7024 36.8614C55.3517 36.8752 54.0447 36.3836 53.0379 35.4832L49.457 32.2641L55.6891 25.5182C55.9783 25.2004 56.3272 24.9428 56.716 24.76C57.1048 24.5771 57.5257 24.4727 57.9549 24.4525C58.3841 24.4324 58.813 24.497 59.2171 24.6426C59.6213 24.7883 59.9929 25.0121 60.3105 25.3014C61.3345 26.2284 62.6643 26.7452 64.0455 26.7529ZM59.983 43.3476L63.808 42.3477L65.4834 43.8727L64.7311 47.6701L59.983 43.3476ZM60.7207 49.5545C60.7389 49.9299 60.6189 50.2989 60.3835 50.5919C60.1481 50.8849 59.8135 51.0815 59.443 51.1445L57.4955 51.4791L57.6463 49.5096C57.6713 49.2012 57.7878 48.9074 57.9809 48.6658C58.1741 48.4242 58.435 48.2458 58.7303 48.1535C58.8535 48.1157 58.981 48.0937 59.1098 48.0879C59.1344 48.0867 59.159 48.0861 59.1836 48.0861C59.5793 48.0867 59.9597 48.2395 60.2458 48.5129C60.532 48.7862 60.702 49.1592 60.7207 49.5545ZM28.1277 16.5039L32.435 19.7248C32.8347 20.023 33.2511 20.2983 33.682 20.5494C35.0276 21.3343 36.187 22.4015 37.0805 23.6775L39.6539 27.368C40.0014 27.8632 40.1807 28.4569 40.1653 29.0617C40.1499 29.6665 39.9407 30.2504 39.5686 30.7273L38.375 32.2672C38.2057 32.4834 37.9833 32.6521 37.7294 32.7568C37.4755 32.8615 37.1989 32.8986 36.9264 32.8644L35.5717 32.6922C34.3905 32.5399 33.1906 32.7387 32.1216 33.2638C31.0526 33.7889 30.1619 34.617 29.5603 35.6449C29.3929 35.9115 29.1518 36.124 28.8663 36.2567C28.5808 36.3894 28.263 36.4367 27.9512 36.3928L24.8537 36.0021C23.7089 35.8529 22.545 36.0246 21.492 36.4981C20.4391 36.9716 19.5383 37.7283 18.8902 38.6838C18.2706 39.5918 17.9313 40.6618 17.9142 41.7609C17.8972 42.86 18.2032 43.94 18.7943 44.8668L20.8598 48.109C21.5899 49.2419 22.7183 50.0598 24.0222 50.4011C25.326 50.7425 26.7105 50.5826 27.9021 49.9529L30.0283 48.8201C30.4472 48.5987 30.9158 48.4885 31.3894 48.4999C31.863 48.5113 32.3257 48.644 32.7334 48.8853L36.7691 51.2934C37.1212 51.5032 37.5256 51.609 37.9353 51.5984C39.349 51.5641 40.7453 52.3029 41.6678 53.582L43.6424 56.3187C43.7986 56.5363 43.9674 56.7498 44.142 56.9541L44.4908 57.3623C43.8959 58.0436 43.2898 58.7281 42.6725 59.416C39.2635 63.2108 36.0758 66.46 33.1094 69.1637C32.9628 68.9093 32.7997 68.6648 32.6211 68.4318L28.2404 62.7209C27.9372 62.3265 27.7128 61.8773 27.5795 61.398L26.1342 56.2113C25.8222 55.1079 25.2303 54.1039 24.4158 53.2968C23.6013 52.4897 22.5919 51.9069 21.4857 51.6051L21.1705 51.5195C20.7174 51.3964 20.3011 51.1647 19.9578 50.8443L17.2602 48.3215C16.9156 47.9991 16.6192 47.6288 16.3803 47.2219C15.6764 46.0239 14.6409 45.0551 13.3987 44.4324C12.1566 43.8097 10.7608 43.5597 9.37969 43.7125C10.9402 31.9832 18.117 21.9922 28.1277 16.5039ZM9.05996 48.5299C9.05996 47.7209 9.08926 46.9187 9.14179 46.1228L9.25078 46.1014C10.2364 45.91 11.2571 46.0293 12.1721 46.4425C13.0871 46.8558 13.8513 47.5428 14.3594 48.4088C14.7122 49.0098 15.1498 49.5567 15.6588 50.0328L18.3555 52.5566C18.9782 53.1381 19.7333 53.5589 20.5555 53.7824L20.8709 53.868C21.5858 54.0624 22.2382 54.4383 22.7648 54.9594C23.2915 55.4804 23.6744 56.1288 23.8764 56.8416L25.3217 62.0283C25.5351 62.7964 25.8946 63.5161 26.3803 64.1482L30.7609 69.8592C30.9759 70.1413 31.1553 70.4487 31.2951 70.7746C28.1278 73.5057 25.2521 75.5522 22.668 76.9141C18.4118 73.5102 14.978 69.1905 12.622 64.2762C10.266 59.362 9.04845 53.9797 9.05996 48.5299ZM10.9545 66.1861C13.262 70.6793 16.4238 74.6793 20.2627 77.9621C17.0766 79.1283 11.2486 80.6898 9.08926 78.457C7.38183 76.6926 8.05078 72.3727 10.9531 66.1863L10.9545 66.1861ZM20.1404 87.2959C16.5662 88.3746 6.78633 90.2672 3.90683 86.275C2.63047 84.5055 2.26621 80.9482 5.94004 73.8068C5.54668 76.6096 6.04394 78.6988 7.42851 80.1111C8.74609 81.4549 10.6756 81.9252 12.7336 81.9252C17.5076 81.9252 22.968 79.3914 23.0461 79.3535C28.8232 76.5186 36.0133 70.3379 44.4168 60.983C50.3502 54.3781 55.3654 47.867 57.8359 44.5609L59.1385 45.7467C59.0926 45.7467 59.0473 45.7443 59.0018 45.7467C58.0554 45.791 57.1579 46.1797 56.4782 46.8398C55.7986 47.4998 55.3837 48.3856 55.3117 49.3303L55.0463 52.799C55.0327 52.9768 55.0598 53.1553 55.1256 53.321C55.1914 53.4866 55.2941 53.6351 55.426 53.7551C55.5578 53.8751 55.7153 53.9634 55.8864 54.0134C56.0575 54.0633 56.2378 54.0736 56.4135 54.0434L59.8428 53.4545C60.7764 53.2942 61.6191 52.798 62.2122 52.0594C62.8053 51.3208 63.1077 50.3907 63.0625 49.4445C63.0603 49.3986 63.0531 49.3537 63.0494 49.3078L63.8973 50.0797C58.9769 58.5978 45.5662 77.7293 20.1396 87.2961L20.1404 87.2959ZM71.01 75.1475C66.1538 79.6733 60.169 82.8087 53.6835 84.2245C47.1981 85.6404 40.4511 85.2845 34.1506 83.1943C52.1445 72.6299 62.1166 57.9324 66.1211 50.9131C66.251 50.8277 66.3627 50.7173 66.4495 50.5883C66.5364 50.4594 66.5967 50.3144 66.627 50.1619L67.5078 45.7154L68.9705 47.0471C69.1145 47.1764 69.2884 47.2678 69.4766 47.3131C68.994 48.7336 68.9333 50.2635 69.3018 51.7177C69.6702 53.172 70.4521 54.4884 71.5527 55.5078L75.9668 59.5764C76.1832 59.7759 76.4668 59.8867 76.7611 59.8867C76.7795 59.8867 76.798 59.8867 76.8166 59.8853C76.9717 59.878 77.1237 59.8399 77.2639 59.7733C77.4042 59.7066 77.5297 59.6128 77.6334 59.4973L82.0865 54.5332C80.769 62.4386 76.8744 69.6866 71.0092 75.1484L71.01 75.1475ZM82.8086 50.2182L76.6814 57.048L73.1406 53.7844C72.1348 52.8525 71.52 51.5737 71.4203 50.2062C71.3207 48.8386 71.7436 47.4842 72.6037 46.4164C75.5037 45.2807 78.2561 43.7995 80.8014 42.0047C80.9378 43.3802 81.5771 44.657 82.5969 45.5902C83.2383 46.1761 83.6208 46.9926 83.6605 47.8604C83.7002 48.7281 83.3938 49.5762 82.8086 50.2182ZM70.0445 44.8553L62.1588 37.6758C63.9997 30.1372 68.1611 23.367 74.0561 18.3203C77.8313 15.0725 82.2309 12.6312 86.9844 11.1463C88.7173 13.9688 91.2192 16.2386 94.1967 17.6893C92.882 23.9272 89.9626 29.7142 85.7269 34.4784C81.4911 39.2427 76.0857 42.8195 70.0445 44.8553ZM94.6211 15.2734C92.5091 14.1239 90.7027 12.4857 89.3529 10.4957C91.2023 10.0562 93.0829 9.76078 94.9779 9.6121C95.0057 11.5056 94.8864 13.3984 94.6211 15.2734Z" fill="#284268"/>
<path d="M83.414 22.3171C82.7082 21.6749 81.8567 21.2142 80.9329 20.9748C80.0091 20.7355 79.041 20.7248 78.1122 20.9435C77.1833 21.1623 76.3217 21.604 75.6019 22.2304C74.882 22.8569 74.3256 23.6492 73.9806 24.5389C73.6357 25.4287 73.5126 26.389 73.622 27.337C73.7315 28.2849 74.0702 29.192 74.6088 29.9797C75.1474 30.7674 75.8698 31.4121 76.7134 31.858C77.5571 32.3039 78.4967 32.5376 79.4509 32.539C79.5447 32.539 79.6387 32.5368 79.7331 32.5324C80.8941 32.4779 82.0128 32.0804 82.9478 31.3901C83.8828 30.6999 84.5921 29.7478 84.986 28.6544C85.3799 27.5611 85.4407 26.3754 85.1608 25.2474C84.8808 24.1195 84.2727 23.0998 83.4132 22.3175L83.414 22.3171ZM82.0703 29.0402C81.5201 29.6445 80.7775 30.0393 79.9688 30.1574C79.1602 30.2755 78.3357 30.1096 77.6357 29.6879C76.9357 29.2662 76.4035 28.6149 76.1299 27.8449C75.8563 27.0748 75.8582 26.2337 76.1352 25.4649C76.4122 24.6961 76.9473 24.0471 77.6491 23.6286C78.351 23.21 79.1763 23.0477 79.9844 23.1694C80.7925 23.2911 81.5333 23.6893 82.0808 24.296C82.6282 24.9027 82.9484 25.6805 82.9867 26.4968C83.0095 26.9603 82.9403 27.4238 82.7828 27.8604C82.6254 28.2969 82.3829 28.6979 82.0695 29.0402H82.0703Z" fill="#284268"/>
<path d="M37.5024 73.3398C37.3209 73.4847 37.1382 73.6292 36.9543 73.7732C36.7163 73.967 36.5638 74.2465 36.5297 74.5516C36.4956 74.8567 36.5826 75.163 36.7719 75.4046C36.9613 75.6463 37.2379 75.804 37.5422 75.8438C37.8466 75.8837 38.1545 75.8025 38.3997 75.6177C38.5886 75.4694 38.7764 75.3209 38.9629 75.1722C39.2059 74.9784 39.362 74.696 39.3968 74.3872C39.4316 74.0784 39.3423 73.7683 39.1485 73.5253C38.9547 73.2823 38.6723 73.1263 38.3635 73.0915C38.0546 73.0567 37.7446 73.146 37.5016 73.3398H37.5024Z" fill="#284268"/>
<path d="M42.9007 68.6482C41.9614 69.5363 40.9909 70.4132 40.0159 71.2545C39.8994 71.355 39.8038 71.4775 39.7346 71.615C39.6655 71.7525 39.6241 71.9022 39.6128 72.0557C39.59 72.3657 39.6912 72.672 39.8943 72.9073C40.0974 73.1426 40.3856 73.2876 40.6955 73.3104C41.0055 73.3332 41.3118 73.2319 41.5471 73.0289C42.5489 72.1644 43.546 71.2636 44.511 70.3513C44.7369 70.1378 44.8686 69.8433 44.8773 69.5326C44.886 69.2219 44.7709 68.9204 44.5574 68.6946C44.3438 68.4687 44.0493 68.337 43.7386 68.3283C43.4279 68.3196 43.1265 68.4347 42.9007 68.6482Z" fill="#284268"/>
<path d="M52.3623 60.0539C52.243 59.9568 52.1056 59.8841 51.9581 59.8401C51.8107 59.796 51.656 59.7815 51.5029 59.7972C51.3498 59.813 51.2013 59.8587 51.0659 59.9318C50.9305 60.005 50.8108 60.1041 50.7137 60.2234C49.0145 62.3123 47.2071 64.3389 45.3426 66.2471C45.1254 66.4694 45.0053 66.7688 45.0089 67.0796C45.0124 67.3904 45.1393 67.6871 45.3616 67.9043C45.5838 68.1216 45.8833 68.2416 46.1941 68.2381C46.5049 68.2345 46.8015 68.1076 47.0188 67.8854C48.9328 65.9266 50.7883 63.8463 52.5325 61.7023C52.7285 61.4612 52.8207 61.152 52.7888 60.8429C52.7569 60.5338 52.6035 60.25 52.3623 60.0539Z" fill="#284268"/>
</svg>
