<svg width="653" height="669" viewBox="0 0 653 669" fill="none" xmlns="http://www.w3.org/2000/svg">
<path fill-rule="evenodd" clip-rule="evenodd" d="M653 276.922L162.391 195.688L328.218 668.299L653 276.922ZM533.403 321.947L257.016 276.244L350.377 542.502L533.403 321.947Z" fill="url(#paint0_linear)"/>
<path d="M214.913 413.757H210.064V417.986H215.639V418.727H209.188V408.359H215.604V409.107H210.064V413.016H214.913V413.757Z" fill="white"/>
<path d="M226.24 418.727V408.359H229.138C229.988 408.359 230.75 408.554 231.424 408.943C232.098 409.328 232.623 409.881 232.998 410.602C233.377 411.324 233.567 412.145 233.567 413.066V414.02C233.567 414.946 233.38 415.767 233.005 416.484C232.63 417.201 232.1 417.754 231.417 418.143C230.738 418.532 229.957 418.727 229.074 418.727H226.24ZM227.116 409.107V417.986H229.081C230.173 417.986 231.049 417.625 231.709 416.904C232.369 416.178 232.699 415.197 232.699 413.963V413.052C232.699 411.86 232.373 410.906 231.723 410.189C231.073 409.472 230.216 409.112 229.153 409.107H227.116Z" fill="white"/>
<path d="M251.688 408.359V415.437C251.683 416.135 251.529 416.743 251.225 417.26C250.921 417.777 250.491 418.176 249.936 418.456C249.385 418.732 248.752 418.869 248.035 418.869C246.943 418.869 246.067 418.573 245.407 417.979C244.752 417.381 244.413 416.555 244.389 415.501V408.359H245.258V415.373C245.258 416.246 245.507 416.925 246.005 417.409C246.504 417.889 247.18 418.129 248.035 418.129C248.889 418.129 249.563 417.887 250.057 417.402C250.555 416.918 250.805 416.244 250.805 415.38V408.359H251.688Z" fill="white"/>
<path d="M270.221 415.494C270.102 416.586 269.711 417.421 269.046 418C268.386 418.58 267.506 418.869 266.404 418.869C265.635 418.869 264.954 418.677 264.361 418.292C263.772 417.908 263.316 417.364 262.993 416.662C262.671 415.955 262.507 415.148 262.502 414.241V412.895C262.502 411.974 262.664 411.158 262.986 410.446C263.309 409.734 263.772 409.185 264.375 408.801C264.982 408.412 265.68 408.217 266.468 408.217C267.579 408.217 268.455 408.518 269.096 409.121C269.741 409.719 270.116 410.548 270.221 411.606H269.338C269.12 409.845 268.163 408.965 266.468 408.965C265.528 408.965 264.778 409.316 264.218 410.018C263.663 410.721 263.385 411.692 263.385 412.931V414.198C263.385 415.394 263.656 416.349 264.197 417.061C264.743 417.773 265.479 418.129 266.404 418.129C267.32 418.129 268.011 417.91 268.476 417.474C268.942 417.032 269.229 416.372 269.338 415.494H270.221Z" fill="white"/>
<path d="M286.696 415.822H281.99L280.922 418.727H280.003L283.926 408.359H284.76L288.683 418.727H287.771L286.696 415.822ZM282.26 415.074H286.419L284.339 409.427L282.26 415.074Z" fill="white"/>
<path d="M305.073 409.107H301.52V418.727H300.644V409.107H297.098V408.359H305.073V409.107Z" fill="white"/>
<path d="M316.571 418.727H315.695V408.359H316.571V418.727Z" fill="white"/>
<path d="M335.802 414.106C335.802 415.06 335.636 415.898 335.304 416.619C334.976 417.341 334.506 417.896 333.894 418.285C333.282 418.675 332.574 418.869 331.772 418.869C330.562 418.869 329.584 418.437 328.838 417.573C328.093 416.705 327.72 415.534 327.72 414.063V412.995C327.72 412.05 327.887 411.215 328.219 410.488C328.556 409.757 329.031 409.197 329.643 408.808C330.255 408.414 330.96 408.217 331.758 408.217C332.555 408.217 333.258 408.409 333.865 408.794C334.478 409.178 334.95 409.722 335.282 410.424C335.615 411.127 335.788 411.941 335.802 412.867V414.106ZM334.926 412.981C334.926 411.732 334.644 410.754 334.079 410.047C333.514 409.34 332.74 408.986 331.758 408.986C330.794 408.986 330.025 409.342 329.451 410.054C328.881 410.761 328.596 411.751 328.596 413.023V414.106C328.596 415.335 328.881 416.311 329.451 417.032C330.02 417.749 330.794 418.107 331.772 418.107C332.764 418.107 333.538 417.754 334.093 417.046C334.649 416.334 334.926 415.345 334.926 414.077V412.981Z" fill="white"/>
<path d="M354.478 418.727H353.602L347.642 409.855V418.727H346.759V408.359H347.642L353.609 417.239V408.359H354.478V418.727Z" fill="white"/>
<path d="M381.284 417.445L381.341 417.666L381.405 417.445L384.666 408.359H385.627L381.768 418.727H380.928L377.069 408.359H378.023L381.284 417.445Z" fill="white"/>
<path d="M400.964 415.822H396.257L395.189 418.727H394.27L398.194 408.359H399.027L402.95 418.727H402.039L400.964 415.822ZM396.527 415.074H400.686L398.607 409.427L396.527 415.074Z" fill="white"/>
<path d="M414.114 417.986H419.233V418.727H413.231V408.359H414.114V417.986Z" fill="white"/>
<path d="M436.428 408.359V415.437C436.423 416.135 436.269 416.743 435.965 417.26C435.661 417.777 435.232 418.176 434.676 418.456C434.126 418.732 433.492 418.869 432.775 418.869C431.683 418.869 430.808 418.573 430.148 417.979C429.493 417.381 429.153 416.555 429.13 415.501V408.359H429.998V415.373C429.998 416.246 430.247 416.925 430.746 417.409C431.244 417.889 431.921 418.129 432.775 418.129C433.63 418.129 434.304 417.887 434.797 417.402C435.296 416.918 435.545 416.244 435.545 415.38V408.359H436.428Z" fill="white"/>
<path d="M453.345 413.757H448.496V417.986H454.071V418.727H447.62V408.359H454.036V409.107H448.496V413.016H453.345V413.757Z" fill="white"/>
<path d="M482.565 415.822H477.858L476.79 418.727H475.871L479.795 408.359H480.628L484.551 418.727H483.64L482.565 415.822ZM478.129 415.074H482.287L480.208 409.427L478.129 415.074Z" fill="white"/>
<path d="M496.249 415.928L496.569 417.538L496.961 416L499.211 408.359H500.002L502.223 416L502.608 417.552L502.949 415.928L504.822 408.359H505.719L503.063 418.727H502.223L499.873 410.617L499.61 409.591L499.354 410.617L496.947 418.727H496.107L493.458 408.359H494.355L496.249 415.928Z" fill="white"/>
<path d="M521.44 415.822H516.733L515.665 418.727H514.747L518.67 408.359H519.503L523.427 418.727H522.515L521.44 415.822ZM517.004 415.074H521.162L519.083 409.427L517.004 415.074Z" fill="white"/>
<path d="M537.581 414.412H534.569V418.727H533.686V408.359H537.054C538.16 408.359 539.024 408.628 539.646 409.164C540.268 409.7 540.579 410.45 540.579 411.414C540.579 412.079 540.384 412.665 539.995 413.173C539.605 413.681 539.083 414.032 538.428 414.227L541.02 418.634V418.727H540.087L537.581 414.412ZM534.569 413.664H537.253C537.989 413.664 538.58 413.455 539.026 413.037C539.472 412.62 539.696 412.079 539.696 411.414C539.696 410.683 539.463 410.116 538.998 409.712C538.533 409.309 537.88 409.107 537.04 409.107H534.569V413.664Z" fill="white"/>
<path d="M557.438 413.757H552.589V417.986H558.165V418.727H551.714V408.359H558.129V409.107H552.589V413.016H557.438V413.757Z" fill="white"/>
<path d="M352.053 361.876H327.808V383.024H355.685V386.727H323.429V334.889H355.507V338.628H327.808V358.173H352.053V361.876Z" fill="white"/>
<path d="M382.029 380.318L382.314 381.422L382.634 380.318L398.94 334.889H403.747L384.45 386.727H380.249L360.952 334.889H365.723L382.029 380.318Z" fill="white"/>
<path d="M438.137 372.201H414.604L409.264 386.727H404.671L424.288 334.889H428.454L448.071 386.727H443.513L438.137 372.201ZM415.957 368.463H436.749L426.353 340.23L415.957 368.463Z" fill="white"/>
<path fill-rule="evenodd" clip-rule="evenodd" d="M517.1 274.607L515.21 291.864L501.21 281.599L517.1 274.607ZM269.76 333.268L279.575 337.059L271.385 343.664L269.76 333.268ZM281.842 502.043L301.137 518.816L276.963 527.14L281.842 502.043ZM517.701 475.221L527.32 468.233L528.563 480.057L517.701 475.221ZM515.376 276.959L504.109 281.916L514.035 289.195L515.376 276.959ZM271.59 335.539L272.435 340.944L276.694 337.509L271.59 335.539ZM282.791 504.801L278.877 524.938L298.274 518.26L282.791 504.801ZM520.602 474.916L526.849 477.698L526.134 470.897L520.602 474.916Z" fill="white"/>
<defs>
<linearGradient id="paint0_linear" x1="608.878" y1="435.727" x2="293.257" y2="205.338" gradientUnits="userSpaceOnUse">
<stop stop-color="#3D0D71"/>
<stop offset="0.322817" stop-color="#F3C64A"/>
<stop offset="0.984035" stop-color="#F3C64A"/>
</linearGradient>
</defs>
</svg>
