<svg width="491" height="473" viewBox="0 0 491 473" fill="none" xmlns="http://www.w3.org/2000/svg">
<path fill-rule="evenodd" clip-rule="evenodd" d="M491 81.3005L0 0L165.96 473L491 81.3005ZM371.308 126.363L94.7009 80.6223L188.136 347.1L371.308 126.363Z" fill="url(#paint0_linear)"/>
<path d="M52.5639 218.248H47.711V222.481H53.2908V223.223H46.8345V212.847H53.2552V213.595H47.711V217.507H52.5639V218.248Z" fill="white"/>
<path d="M63.9003 223.223V212.847H66.8006C67.651 212.847 68.4135 213.041 69.0882 213.431C69.7628 213.816 70.2877 214.369 70.663 215.091C71.0431 215.813 71.2331 216.635 71.2331 217.557V218.512C71.2331 219.438 71.0455 220.26 70.6702 220.978C70.2949 221.695 69.7651 222.249 69.081 222.638C68.4017 223.028 67.6202 223.223 66.7365 223.223H63.9003ZM64.7768 213.595V222.481H66.7436C67.8363 222.481 68.7128 222.12 69.3732 221.398C70.0336 220.671 70.3637 219.69 70.3637 218.455V217.543C70.3637 216.35 70.0383 215.395 69.3875 214.678C68.7366 213.961 67.8791 213.6 66.8149 213.595H64.7768Z" fill="white"/>
<path d="M89.3679 212.847V219.93C89.3631 220.629 89.2087 221.237 88.9047 221.755C88.6006 222.272 88.1707 222.671 87.6148 222.952C87.0637 223.227 86.4295 223.365 85.7121 223.365C84.6195 223.365 83.7429 223.068 83.0826 222.474C82.427 221.876 82.0873 221.049 82.0635 219.994V212.847H82.9329V219.866C82.9329 220.74 83.1823 221.42 83.6812 221.904C84.18 222.384 84.857 222.624 85.7121 222.624C86.5673 222.624 87.2419 222.382 87.736 221.897C88.2348 221.412 88.4842 220.738 88.4842 219.873V212.847H89.3679Z" fill="white"/>
<path d="M107.916 219.987C107.797 221.08 107.405 221.916 106.74 222.496C106.08 223.075 105.198 223.365 104.096 223.365C103.327 223.365 102.645 223.173 102.051 222.788C101.462 222.403 101.006 221.859 100.683 221.156C100.36 220.448 100.196 219.64 100.191 218.733V217.386C100.191 216.464 100.353 215.647 100.676 214.935C100.999 214.222 101.462 213.673 102.065 213.288C102.673 212.899 103.372 212.704 104.16 212.704C105.272 212.704 106.149 213.006 106.79 213.609C107.436 214.208 107.811 215.037 107.916 216.096H107.032C106.814 214.334 105.856 213.452 104.16 213.452C103.22 213.452 102.469 213.804 101.909 214.507C101.353 215.21 101.075 216.182 101.075 217.422V218.69C101.075 219.887 101.346 220.842 101.887 221.555C102.434 222.268 103.17 222.624 104.096 222.624C105.013 222.624 105.704 222.405 106.17 221.968C106.636 221.526 106.923 220.866 107.032 219.987H107.916Z" fill="white"/>
<path d="M124.405 220.315H119.694L118.625 223.223H117.706L121.632 212.847H122.466L126.393 223.223H125.481L124.405 220.315ZM119.965 219.567H124.127L122.046 213.916L119.965 219.567Z" fill="white"/>
<path d="M142.796 213.595H139.24V223.223H138.363V213.595H134.814V212.847H142.796V213.595Z" fill="white"/>
<path d="M154.303 223.223H153.427V212.847H154.303V223.223Z" fill="white"/>
<path d="M173.55 218.598C173.55 219.552 173.383 220.391 173.051 221.113C172.723 221.835 172.253 222.391 171.64 222.781C171.027 223.17 170.319 223.365 169.516 223.365C168.305 223.365 167.326 222.933 166.58 222.068C165.834 221.199 165.461 220.028 165.461 218.555V217.486C165.461 216.54 165.628 215.704 165.96 214.977C166.298 214.246 166.773 213.685 167.385 213.296C167.998 212.901 168.704 212.704 169.502 212.704C170.3 212.704 171.003 212.896 171.611 213.281C172.224 213.666 172.697 214.21 173.029 214.913C173.362 215.616 173.535 216.431 173.55 217.358V218.598ZM172.673 217.472C172.673 216.222 172.39 215.243 171.825 214.535C171.26 213.828 170.485 213.474 169.502 213.474C168.538 213.474 167.768 213.83 167.193 214.543C166.623 215.251 166.338 216.241 166.338 217.514V218.598C166.338 219.828 166.623 220.804 167.193 221.526C167.763 222.244 168.538 222.603 169.516 222.603C170.509 222.603 171.283 222.249 171.839 221.541C172.395 220.828 172.673 219.838 172.673 218.569V217.472Z" fill="white"/>
<path d="M192.24 223.223H191.364L185.399 214.343V223.223H184.515V212.847H185.399L191.371 221.733V212.847H192.24V223.223Z" fill="white"/>
<path d="M219.067 221.94L219.124 222.161L219.189 221.94L222.452 212.847H223.414L219.552 223.223H218.711L214.849 212.847H215.804L219.067 221.94Z" fill="white"/>
<path d="M238.763 220.315H234.052L232.983 223.223H232.064L235.991 212.847H236.824L240.751 223.223H239.839L238.763 220.315ZM234.323 219.567H238.485L236.404 213.916L234.323 219.567Z" fill="white"/>
<path d="M251.923 222.481H257.047V223.223H251.04V212.847H251.923V222.481Z" fill="white"/>
<path d="M274.256 212.847V219.93C274.251 220.629 274.096 221.237 273.792 221.755C273.488 222.272 273.058 222.671 272.503 222.952C271.951 223.227 271.317 223.365 270.6 223.365C269.507 223.365 268.631 223.068 267.97 222.474C267.315 221.876 266.975 221.049 266.951 219.994V212.847H267.821V219.866C267.821 220.74 268.07 221.42 268.569 221.904C269.068 222.384 269.745 222.624 270.6 222.624C271.455 222.624 272.13 222.382 272.624 221.897C273.122 221.412 273.372 220.738 273.372 219.873V212.847H274.256Z" fill="white"/>
<path d="M291.186 218.248H286.333V222.481H291.913V223.223H285.457V212.847H291.877V213.595H286.333V217.507H291.186V218.248Z" fill="white"/>
<path d="M320.429 220.315H315.719L314.65 223.223H313.73L317.657 212.847H318.491L322.417 223.223H321.505L320.429 220.315ZM315.989 219.567H320.151L318.07 213.916L315.989 219.567Z" fill="white"/>
<path d="M334.124 220.422L334.445 222.032L334.837 220.493L337.089 212.847H337.88L340.103 220.493L340.488 222.047L340.83 220.422L342.704 212.847H343.602L340.944 223.223H340.103L337.751 215.106L337.488 214.079L337.231 215.106L334.823 223.223H333.982L331.331 212.847H332.229L334.124 220.422Z" fill="white"/>
<path d="M359.335 220.315H354.625L353.556 223.223H352.637L356.563 212.847H357.397L361.323 223.223H360.411L359.335 220.315ZM354.896 219.567H359.057L356.976 213.916L354.896 219.567Z" fill="white"/>
<path d="M375.489 218.904H372.474V223.223H371.591V212.847H374.962C376.068 212.847 376.933 213.115 377.555 213.652C378.178 214.189 378.489 214.939 378.489 215.904C378.489 216.569 378.294 217.156 377.905 217.664C377.515 218.172 376.992 218.524 376.337 218.719L378.931 223.13V223.223H377.997L375.489 218.904ZM372.474 218.156H375.161C375.897 218.156 376.489 217.947 376.935 217.529C377.382 217.11 377.605 216.569 377.605 215.904C377.605 215.172 377.373 214.604 376.907 214.201C376.441 213.797 375.788 213.595 374.947 213.595H372.474V218.156Z" fill="white"/>
<path d="M395.362 218.248H390.509V222.481H396.089V223.223H389.633V212.847H396.054V213.595H390.509V217.507H395.362V218.248Z" fill="white"/>
<path d="M189.813 166.325H165.549V187.49H193.448V191.196H161.166V139.316H193.27V143.057H165.549V162.619H189.813V166.325Z" fill="white"/>
<path d="M219.813 184.782L220.098 185.887L220.419 184.782L236.738 139.316H241.548L222.236 191.196H218.032L198.72 139.316H203.494L219.813 184.782Z" fill="white"/>
<path d="M275.966 176.658H252.414L247.07 191.196H242.473L262.106 139.316H266.275L285.907 191.196H281.347L275.966 176.658ZM253.768 172.917H274.577L264.172 144.661L253.768 172.917Z" fill="white"/>
<path fill-rule="evenodd" clip-rule="evenodd" d="M354.992 78.9841L353.1 96.2554L339.089 85.9814L354.992 78.9841ZM107.454 137.694L117.278 141.487L109.081 148.098L107.454 137.694ZM119.546 306.608L138.856 323.394L114.664 331.725L119.546 306.608ZM355.594 279.764L365.22 272.769L366.464 284.604L355.594 279.764ZM353.266 81.3381L341.991 86.2992L351.925 93.5836L353.266 81.3381ZM109.287 139.966L110.132 145.375L114.394 141.938L109.287 139.966ZM120.496 309.368L116.579 329.522L135.991 322.837L120.496 309.368ZM358.496 279.459L364.748 282.242L364.033 275.436L358.496 279.459Z" fill="white"/>
<defs>
<linearGradient id="paint0_linear" x1="446.843" y1="240.237" x2="130.964" y2="9.66607" gradientUnits="userSpaceOnUse">
<stop stop-color="#3D0D71"/>
<stop offset="0.322817" stop-color="#F3C64A"/>
<stop offset="0.984035" stop-color="#F3C64A"/>
</linearGradient>
</defs>
</svg>
